<?xml version="1.0" standalone="no"?>
<!DOCTYPE svg PUBLIC "-//W3C//DTD SVG 1.1//EN" "http://www.w3.org/Graphics/SVG/1.1/DTD/svg11.dtd" >
<svg>
<metadata>
Created by FontForge 20090914 at Fri Feb 24 15:50:47 2012
 By root
Copyright (c) 2011, Eduardo Tunni (http://www.tipo.net.ar), with Reserved Font Name "Merienda"
</metadata>
<defs>
<font id="MeriendaOne-Regular" horiz-adv-x="620" >
  <font-face 
    font-family="Merienda One"
    font-weight="400"
    font-stretch="normal"
    units-per-em="1000"
    panose-1="2 0 0 0 0 0 0 0 0 0"
    ascent="800"
    descent="-200"
    x-height="579"
    cap-height="802"
    bbox="-220 -342 1267 1102"
    underline-thickness="50"
    underline-position="-50"
    unicode-range="U+0020-U+FB02"
  />
<missing-glyph horiz-adv-x="330" 
 />
    <glyph glyph-name=".notdef" horiz-adv-x="330" 
 />
    <glyph glyph-name=".null" horiz-adv-x="0" 
 />
    <glyph glyph-name="nonmarkingreturn" horiz-adv-x="333" 
 />
    <glyph glyph-name="space" unicode=" " horiz-adv-x="330" 
 />
    <glyph glyph-name="exclam" unicode="!" horiz-adv-x="286" 
d="M290 703q0 -31 -18 -98q-53 -205 -53 -318q0 -50 8 -69q-69 17 -95 51.5t-26 95t25 185.5t25 178.5t-3 69.5q53 0 95 -23.5t42 -71.5zM78 136q35 10 71 10q74 0 74 -62q0 -20 -18 -85q-35 -10 -71 -10q-74 0 -74 62q0 20 18 85z" />
    <glyph glyph-name="quotedbl" unicode="&#x22;" horiz-adv-x="403" 
d="M223 762q0 -20 -22 -74t-22 -87.5t6 -60.5q-69 0 -92 22.5t-23 57t16.5 86t16.5 76t-6 45.5q126 0 126 -65zM403 762q0 -20 -22 -74t-22 -87.5t6 -60.5q-69 0 -92 22.5t-23 57t16.5 86t16.5 76t-6 45.5q126 0 126 -65z" />
    <glyph glyph-name="numbersign" unicode="#" horiz-adv-x="772" 
d="M712 186l-1 -23q-96 9 -201 11q-52 -146 -63 -215q-7 0 -27.5 7t-33.5 16q-32 23 -32 59t32 129q-22 -1 -72 -4t-79 -4q-48 -138 -59 -203q-7 0 -27.5 7t-32.5 16q-33 23 -33 60t29 119q-67 6 -89.5 32.5t-22.5 75.5q0 4 0.5 11.5t0.5 11.5q70 -8 156 -11l27 68.5
t28 72.5h-7q-88 0 -116.5 27.5t-28.5 81.5q0 4 0.5 11.5t0.5 11.5q108 -11 196 -11q40 110 53 184q7 0 27.5 -7t32.5 -16q33 -23 33 -64q0 -25 -22 -94q28 1 81.5 4.5l69.5 4.5q38 106 49 172q7 0 27.5 -7t33.5 -16q32 -23 32 -64q0 -27 -19 -84q70 -5 93.5 -31.5
t23.5 -76.5l-1 -23q-99 9 -159 10l-55 -140h9q93 0 122 -31q24 -27 24 -78zM488 435q-28 -1 -81.5 -4.5l-69.5 -4.5l-31.5 -81.5l-24.5 -62.5q33 1 150 8z" />
    <glyph glyph-name="dollar" unicode="$" 
d="M389 469q48 33 48 98q0 36 -21.5 61t-63.5 25t-72.5 -25t-30.5 -66t16 -71.5t41.5 -53.5t56 -45.5l61 -45.5t56.5 -48q57 -55 57 -128.5t-58.5 -128.5t-155.5 -64q-18 -100 -18 -167q-21 0 -48 8q-53 15 -53 69q0 33 14 95q-75 14 -116 56.5t-41 96.5t32.5 87t87.5 33
q17 0 30 -4q-27 -41 -27 -88.5t29 -81.5t78 -34t81.5 25.5t32.5 66t-29.5 72.5t-71 60t-83 59.5t-71 81.5t-29.5 120.5t50.5 123.5t147.5 61q24 102 29 158q28 0 51 -22t23 -55t-11 -85q64 -15 99 -56.5t35 -85t-31 -76.5t-84 -33q-21 0 -41 7z" />
    <glyph glyph-name="percent" unicode="%" horiz-adv-x="920" 
d="M234 633q-36 0 -62.5 -54.5t-26.5 -113t14 -94.5t40 -36q36 0 57 51.5t21 120.5q0 126 -43 126zM190 709q25 0 31 -19q27 9 47 9q57 0 87 -45.5t30 -115t-20 -129t-66.5 -102.5t-109.5 -43t-106.5 51t-43.5 145t41.5 162t109.5 87zM730 346q-36 0 -62.5 -54.5t-26.5 -113
t14 -94.5t40 -36q36 0 57 51.5t21 120.5q0 126 -43 126zM686 422q25 0 31 -19q27 9 47 9q57 0 87 -45.5t30 -115t-20 -129t-66.5 -102.5t-109.5 -43t-106.5 51t-43.5 145t41.5 162t109.5 87zM543 768q8 -3 24.5 -14.5t26.5 -21.5q28 -28 28 -67t-50 -174l-107.5 -303
t-71.5 -270q-11 0 -35 8t-39 17t-27.5 28t-12.5 43q0 45 58 187.5l124.5 310.5t81.5 256z" />
    <glyph glyph-name="ampersand" unicode="&#x26;" 
d="M216 590q0 -77 62.5 -117.5t178.5 -40.5t225 46q0 -92 -34 -116q-16 -11 -41 -11h-66q-4 -28 -16 -105l-19 -124q-18 -132 -18 -214t24 -138q-80 21 -108 64t-28 124q0 42 5 90q-27 -42 -72 -61.5t-90 -19.5q-85 0 -147.5 53t-62.5 140.5t61.5 154t168.5 82.5
q-82 27 -118 78.5t-36 111.5q0 77 64.5 135.5t162 58.5t149.5 -40t52 -98.5t-37 -97.5t-99 -39q-21 0 -42 5q55 61 55 102.5t-21.5 61.5t-50.5 20q-47 0 -74.5 -30.5t-27.5 -74.5zM267 50q68 0 96.5 46.5t40.5 132.5l17 123q-75 0 -127 -15t-80 -33.5t-48 -52t-20 -85.5
t35 -84t86 -32z" />
    <glyph glyph-name="quotesingle" unicode="'" horiz-adv-x="223" 
d="M223 762q0 -20 -22 -74t-22 -87.5t6 -60.5q-69 0 -92 22.5t-23 57t16.5 86t16.5 76t-6 45.5q126 0 126 -65z" />
    <glyph glyph-name="parenleft" unicode="(" horiz-adv-x="359" 
d="M409 765q-108 -76 -164 -206t-56 -277q0 -81 17.5 -152t45.5 -120q52 -90 110 -131q-1 -6 -9.5 -13t-17.5 -9q-132 33 -208.5 151t-76.5 290.5t92.5 312.5t243.5 176q9 -2 16 -8.5t7 -13.5z" />
    <glyph glyph-name="parenright" unicode=")" horiz-adv-x="359" 
d="M-50 -121q108 76 164 206t56 277q0 81 -17.5 152t-45.5 120q-52 90 -110 131q1 6 9.5 13t17.5 9q132 -33 208.5 -151t76.5 -290.5t-92.5 -312.5t-243.5 -176q-9 2 -16 8.5t-7 13.5z" />
    <glyph glyph-name="asterisk" unicode="*" horiz-adv-x="522" 
d="M428 562q-80 82 -98 96q2 -15 2 -48q0 -117 -63 -117q-39 0 -89 49q47 49 70 114q-66 -31 -113 -31q-67 0 -67 64q0 33 22 74q70 -31 132 -31q-70 78 -70 128q0 57 85 57q19 0 37 -3q-4 -31 -4 -61t17 -74q63 108 116 108q18 0 40.5 -28.5t31.5 -74.5q-76 -14 -126 -51
q141 -37 141 -89q0 -19 -16.5 -42t-47.5 -40z" />
    <glyph glyph-name="plus" unicode="+" 
d="M407 303l-39 -1q0 -55 -4.5 -113.5t-33.5 -80.5t-83 -22q-4 0 -11.5 0.5t-11.5 0.5q22 112 25 206q-58 -4 -94 -4q-66 0 -88 27.5t-22 81.5q0 4 0.5 11.5t0.5 11.5q81 -11 136 -11t68 1q0 54 4.5 112.5t33.5 80.5t83 22q4 0 11.5 -0.5t11.5 -0.5q-22 -111 -26 -205
q60 4 97 4q66 0 88 -27.5t22 -81.5q0 -4 -0.5 -11.5t-0.5 -11.5q-81 11 -167 11z" />
    <glyph glyph-name="comma" unicode="," horiz-adv-x="209" 
d="M45 135q39 11 75 11q74 0 74 -62q0 -65 -47 -124.5t-137 -106.5l-29 45q79 70 79 162q0 33 -15 75z" />
    <glyph glyph-name="hyphen" unicode="-" horiz-adv-x="480" 
d="M189 385l99 -4q89 0 128 41q4 -21 4 -59.5t-19 -69t-61 -30.5q-115 0 -171.5 -10t-107.5 -42q-1 14 -1 49q0 75 32.5 100t96.5 25z" />
    <glyph glyph-name="period" unicode="." horiz-adv-x="208" 
d="M175 -1q-35 -10 -71 -10q-74 0 -74 62q0 20 18 85q35 10 71 10q74 0 74 -62q0 -20 -18 -85z" />
    <glyph glyph-name="slash" unicode="/" horiz-adv-x="393" 
d="M364 868q8 -3 24.5 -14.5t27.5 -21.5q27 -28 27 -66.5t-75 -224.5l-157.5 -403.5t-96.5 -319.5q-11 0 -35 8t-39 17t-27.5 28t-12.5 43q0 45 83 237.5l174.5 410t106.5 306.5z" />
    <glyph glyph-name="zero" unicode="0" 
d="M348 617q-73 0 -127 -100t-54 -210.5t31 -178t91 -67.5q74 0 117.5 96t43.5 221t-29 182t-73 57zM306 668q57 25 103 25q84 0 129.5 -74t45.5 -190q0 -169 -75 -303q-37 -67 -100.5 -108t-150 -41t-154.5 83t-68 238.5t66.5 268t175.5 143.5q26 0 28 -42z" />
    <glyph glyph-name="one" unicode="1" 
d="M63 -21q0 16 9.5 41t23.5 41.5t43 30t61.5 13.5t46.5 -1q5 55 24 207.5t27 224.5q-109 -63 -134.5 -63t-43 42t-17.5 72q53 12 152 44t181 71q0 -52 -26 -262.5t-32 -338.5q94 2 156 29q-4 -81 -26.5 -115t-80.5 -34q-20 0 -88.5 10.5t-140 10.5t-135.5 -23z" />
    <glyph glyph-name="two" unicode="2" 
d="M217 435q-58 0 -91.5 35t-33.5 84q0 65 57 115t157 50t167 -47.5t67 -144.5t-88.5 -211t-261.5 -213h19q106 0 198.5 10.5t130.5 26.5q-4 -76 -38 -117.5t-88 -41.5q-14 0 -98.5 10.5t-170 10.5t-160.5 -23q0 32 26 67q28 39 83 52l78 65.5t80 77t77 89.5t52 93t22 103
t-29 81.5t-67 30.5t-65 -27.5t-27 -77.5t39 -95q-18 -3 -35 -3z" />
    <glyph glyph-name="three" unicode="3" 
d="M237 332l-5 39q86 15 134 67.5t48 109.5q0 38 -22 62.5t-58 24.5t-59 -22.5t-23 -64t40 -88.5q-21 -5 -41 -5q-53 0 -84 31.5t-31 76.5q0 67 55 110.5t148.5 43.5t146.5 -49.5t53 -118.5q0 -50 -34.5 -96.5t-104.5 -78.5q67 -15 107.5 -65.5t40.5 -114.5
q0 -84 -76.5 -155.5t-202.5 -71.5q-102 0 -154 46.5t-52 105.5t35.5 97.5t98.5 38.5q19 0 44 -7q-52 -37 -52 -101q0 -48 27.5 -73.5t72.5 -25.5t82.5 36t37.5 97t-37 105t-108 50q-9 -2 -27 -4z" />
    <glyph glyph-name="four" unicode="4" 
d="M77 139q-26 28 -26 80q0 8 6.5 19l59.5 100t70 120l51 96q57 110 76 203q9 -2 29.5 -14t33.5 -22.5t23.5 -28.5t10.5 -45.5t-36.5 -91t-103 -162.5t-102.5 -163q108 3 212 11q14 87 14 133t-2 80q20 2 34 2q84 0 84 -77q0 -33 -13 -128l68 7q7 -25 7 -52q0 -81 -79 -81
h-11q-1 -19 -1 -75.5t6 -84.5q-22 -2 -39 -2q-53 0 -77 25.5t-24 64.5q0 15 12 75z" />
    <glyph glyph-name="five" unicode="5" 
d="M545 710q9 -18 9 -67q0 -82 -52 -82q-62 0 -249 37l-27 -173q29 5 67 5q118 0 185 -58t67 -154.5t-73.5 -173.5t-196.5 -77q-90 0 -152 40.5t-62 111.5q0 56 36 94t94 38q17 0 35 -3q-39 -45 -39 -93.5t28 -79t74.5 -30.5t85.5 40.5t39 108t-48.5 117.5t-142.5 50
q-52 0 -108 -13l47 278q-26 23 -30 76q62 -9 136 -9q128 0 242 13z" />
    <glyph glyph-name="six" unicode="6" 
d="M360 637q-61 0 -100.5 -81.5t-53.5 -193.5q74 30 151.5 30t137 -49t59.5 -130q0 -109 -75 -178t-173 -69t-170 77t-72 227q0 169 73 303q36 66 99 106t143.5 40t129 -44t48.5 -93t-28 -78.5t-82 -29.5q-24 0 -47 10q31 22 31 73q0 32 -18.5 56t-52.5 24zM298 318
q-47 0 -97 -18q-1 -11 -1 -56.5t9 -93t26 -68.5t33 -28t38 -7q53 0 86 43.5t33 99t-30.5 92t-96.5 36.5z" />
    <glyph glyph-name="seven" unicode="7" 
d="M494 811q8 -3 24.5 -14.5t27.5 -22.5q27 -27 27 -62t-47 -132.5t-105 -204.5t-112 -234t-65 -208q-11 0 -35 8t-39 17t-27.5 28t-12.5 48.5t44 117t122 226.5t117 218q-207 -42 -274 -42q-52 0 -52 89q0 49 9 67q125 -17 218.5 -17t143.5 3q28 71 36 115z" />
    <glyph glyph-name="eight" unicode="8" 
d="M336 228q-7 7 -29 25.5l-32 27.5q-45 -35 -63.5 -71t-18.5 -78.5t23 -67.5t63.5 -25t75 25.5t34.5 72t-53 91.5zM286.5 620.5q-28.5 -25.5 -28.5 -67.5t20 -70.5t70 -66.5q79 70 79 153q0 33 -19 55t-56 22t-65.5 -25.5zM552 573q0 -136 -167 -192q58 -44 85.5 -69
t51 -64t23.5 -82q0 -89 -72.5 -144t-186 -55t-172.5 50t-59 121q0 127 178 181q-63 54 -92.5 100t-29.5 108q0 88 68 140t173 52t152.5 -43t47.5 -103z" />
    <glyph glyph-name="nine" unicode="9" 
d="M183 131q0 -32 19.5 -57t61 -25t76.5 43q62 79 79 248q-64 -55 -144 -55t-133.5 49t-53.5 141.5t72 168t196 75.5q83 0 142 -70.5t59 -210.5q0 -175 -75 -316q-38 -70 -103 -112.5t-147 -42.5t-128.5 42.5t-46.5 97.5t35.5 93.5t98.5 38.5q19 0 44 -7q-52 -37 -52 -101z
M424 419l1 21q0 87 -22.5 142.5t-66.5 55.5q-57 0 -92.5 -51.5t-35.5 -110t25 -85t65 -26.5q67 0 126 54z" />
    <glyph glyph-name="colon" unicode=":" horiz-adv-x="286" 
d="M205 -1q-35 -10 -71 -10q-74 0 -74 62q0 20 18 85q35 10 71 10q74 0 74 -62q0 -20 -18 -85zM238 407q-35 -10 -71 -10q-74 0 -74 62q0 20 18 85q35 10 71 10q74 0 74 -62q0 -20 -18 -85z" />
    <glyph glyph-name="semicolon" unicode=";" horiz-adv-x="287" 
d="M239 407q-35 -10 -71 -10q-74 0 -74 62q0 20 18 85q35 10 71 10q74 0 74 -62q0 -20 -18 -85zM75 135q39 11 75 11q74 0 74 -62q0 -65 -47 -124.5t-137 -106.5l-29 45q79 70 79 162q0 33 -15 75z" />
    <glyph glyph-name="less" unicode="&#x3c;" 
d="M90 313q-20 22 -20 52t20 58q70 34 153 91.5t139 91.5t96 34q50 0 72 -99q-63 -22 -177.5 -90.5t-142.5 -82.5q29 -14 142 -81.5t178 -91.5q-22 -99 -72 -99q-40 0 -96 34t-139 91.5t-153 91.5z" />
    <glyph glyph-name="equal" unicode="=" 
d="M332.5 536q81.5 7 140 7t80.5 -27.5t22 -81.5q0 -4 -0.5 -11.5t-0.5 -11.5q-81 11 -143 11t-143.5 -7t-140 -7t-80.5 27.5t-22 81.5q0 4 0.5 11.5t0.5 11.5q81 -11 143 -11t143.5 7zM332.5 298q81.5 7 140 7t80.5 -27.5t22 -81.5q0 -4 -0.5 -11.5t-0.5 -11.5
q-81 11 -143 11t-143.5 -7t-140 -7t-80.5 27.5t-22 81.5q0 4 0.5 11.5t0.5 11.5q81 -11 143 -11t143.5 7z" />
    <glyph glyph-name="greater" unicode="&#x3e;" 
d="M530 313q-70 -34 -153 -91.5t-139 -91.5t-96 -34q-50 0 -72 99q65 24 178 91.5t142 81.5q-28 14 -142.5 82.5t-177.5 90.5q22 99 72 99q40 0 96 -34t139 -91.5t153 -91.5q20 -28 20 -58t-20 -52z" />
    <glyph glyph-name="question" unicode="?" horiz-adv-x="453" 
d="M114 136q35 10 71 10q74 0 74 -62q0 -20 -18 -85q-35 -10 -71 -10q-74 0 -74 62q0 20 18 85zM237 206q-122 32 -122 118q0 66 81 128l66.5 52t57 59.5t23.5 69t-22.5 54.5t-60 19t-61.5 -27.5t-24 -65.5t25 -68q-21 -8 -53.5 -8t-59.5 26t-27 69q0 64 64.5 104t148 40
t142 -43t58.5 -127q0 -50 -25.5 -91.5t-61.5 -70.5t-72 -55q-88 -62 -88 -121q0 -36 11 -62z" />
    <glyph glyph-name="at" unicode="@" horiz-adv-x="1027" 
d="M580 -12q7 -25 7 -46q0 -51 -43 -71t-116.5 -20t-137.5 21.5t-118.5 63.5t-88 115t-33.5 166.5t37.5 182.5t106 161t176 115.5t235.5 43.5q140 0 249 -77q56 -39 89.5 -110t33.5 -160t-28 -161.5t-70.5 -117t-89 -69.5t-88.5 -25q-128 0 -128 187q-30 -46 -73 -72
t-90.5 -26t-81 39.5t-33.5 111t23 134t74.5 108t119.5 45.5q38 0 72 -18v26h43q45 0 67.5 -15.5t22.5 -56.5q0 -5 -11 -55q-32 -157 -32 -234q0 -97 46 -97q42 0 82.5 76.5t40.5 211.5q0 77 -21.5 135t-57.5 90q-72 63 -171.5 63t-179.5 -37.5t-129 -99.5
q-102 -129 -102 -294q0 -77 21.5 -134.5t58.5 -89.5q73 -63 162 -63t156 53zM472.5 386q-41.5 -73 -41.5 -141.5t37 -68.5q45 0 82.5 83.5t37.5 180.5q0 24 -3 51q-71 -32 -112.5 -105z" />
    <glyph glyph-name="A" unicode="A" horiz-adv-x="645" 
d="M488 2.5q-17 18.5 -29 56t-47 201.5q-23 -20 -75 -22l-171 -6q-61 -149 -90 -265q-96 34 -96 77q0 19 58 142l131.5 279.5t99.5 227.5l18 49q-8 14 -39 51q36 12 62.5 12t44 -4t31 -13.5t24 -19.5t19.5 -29.5t15 -35t13.5 -43.5t12 -48.5l12 -57t15.5 -70.5t28 -129.5
t31.5 -143t33 -106.5t45.5 -93q-58 -28 -94 -28t-53 18.5zM333 609l-61.5 -136.5t-73.5 -166.5h205q-47 216 -70 303z" />
    <glyph glyph-name="B" unicode="B" horiz-adv-x="679" 
d="M75 53q1 8 22 149q44 294 44 533q0 79 -14 112q107 -28 134 -88q77 43 163 43t140.5 -48.5t54.5 -118t-50 -129t-137 -88.5q70 -15 128.5 -67.5t58.5 -129.5q0 -118 -87.5 -181.5t-221 -63.5t-235.5 77zM450 687.5q-28 30.5 -79 30.5t-98 -21q0 -61 -26.5 -307
t-26.5 -315q44 -18 85 -18q71 0 117 47t46 118t-48 118.5t-134 51.5l-3 36q92 13 143.5 67.5t51.5 116.5q0 45 -28 75.5z" />
    <glyph glyph-name="C" unicode="C" horiz-adv-x="687" 
d="M584 205q37 -8 37 -37q-38 -69 -93 -112t-104 -57t-101 -14q-118 0 -198 90t-80 262q0 192 99 327q49 65 125.5 103.5t177 38.5t153 -53.5t52.5 -126t-40 -118t-104 -45.5q-22 0 -51 8q21 26 37 74t16 91t-20 70t-63 27q-66 0 -119 -61t-79 -150t-26 -184q0 -128 50 -194
t128 -66q49 0 102 33t101 94z" />
    <glyph glyph-name="D" unicode="D" horiz-adv-x="760" 
d="M261 759q89 43 167 43q138 0 217 -109t79 -274q0 -137 -61 -244q-68 -119 -191 -165q-67 -25 -141 -25t-136.5 17t-90.5 34l-29 17q1 8 22 149q44 294 44 533q0 79 -14 112q107 -28 134 -88zM221 75q39 -15 87 -15q87 0 150.5 56t92 137t28.5 172q0 128 -55 209t-148 81
q-58 0 -102 -18q0 -61 -26.5 -307t-26.5 -315z" />
    <glyph glyph-name="E" unicode="E" horiz-adv-x="631" 
d="M412 334l-96 1q-44 0 -67 -1q-15 -133 -16 -228q235 0 349 38q-9 -74 -45 -115t-90 -41q-16 0 -89.5 8.5t-155.5 8.5t-160 -17q11 47 48 77v4q0 54 28 246l-43 -16q-2 22 -2 33q0 67 59 85q18 132 24 238q-37 2 -47 17t-10 59q3 45 8 59q112 -15 247.5 -15t261.5 24
q-14 -105 -128 -126q-67 -13 -199 -17q-1 -11 -29 -232q60 -2 83 -2q95 0 135 33q2 -20 2 -30q0 -91 -68 -91z" />
    <glyph glyph-name="F" unicode="F" horiz-adv-x="520" 
d="M409 334l-96 1q-41 0 -63 -1q-16 -140 -16 -227t6 -122q-32 -2 -42 -2q-57 0 -82 20t-25 70.5t28 242.5q-32 -10 -47 -17q-2 22 -2 33q0 69 63 86q19 137 23 237q-51 0 -64.5 14t-13.5 62q4 45 8 59q113 -15 248 -15t261 24q-14 -105 -128 -126q-62 -12 -177 -16
q-1 -13 -29 -233q58 -2 79 -2q95 0 135 33q2 -20 2 -30q0 -91 -68 -91z" />
    <glyph glyph-name="G" unicode="G" horiz-adv-x="687" 
d="M280 -256q167 0 190 393q-37 -53 -89 -80.5t-107 -27.5q-96 0 -165 78t-69 217q0 191 99 332q48 69 124 109.5t173.5 40.5t149 -50.5t51.5 -124.5t-46 -117t-109 -43q-41 0 -78 20t-57 58q27 -7 51 -7q54 0 85.5 31t31.5 70t-26 64.5t-74 25.5q-63 0 -114.5 -64.5
t-77.5 -156t-26 -189.5t38.5 -153.5t93.5 -55.5t95.5 54t40.5 146q0 23 -3 47v3q22 2 46 2q58 0 80.5 -19.5t22.5 -66.5q0 -305 -109 -476q-38 -59 -99 -96t-138 -37q-105 0 -157.5 53.5t-52.5 122.5t37 110.5t92 41.5q30 0 66 -17q-53 -67 -53 -141q0 -43 20 -70t63 -27z
" />
    <glyph glyph-name="H" unicode="H" horiz-adv-x="791" 
d="M477 346l-96 1q-51 0 -122 -3q-23 -172 -23 -257t14 -118q-85 22 -116 58.5t-31 101.5q0 38 21 193q1 4 1 5q-30 -8 -48 -16q-2 22 -2 33q0 70 64 86q21 178 21 290q0 30 -4 82q100 -4 126 -36q13 -18 16.5 -34.5t3.5 -53t-14 -130t-16 -111.5q166 0 286 2q21 172 21 281
q0 30 -4 82q100 -4 125 -36q14 -18 17.5 -34.5t3.5 -53t-33.5 -266t-33.5 -320t14 -123.5q-85 22 -115.5 58t-30.5 92t20 203l6 43q-22 -19 -71 -19z" />
    <glyph glyph-name="I" unicode="I" horiz-adv-x="344" 
d="M272.5 723q1.5 -14 1.5 -51t-33 -263t-33 -316.5t14 -123.5q-85 22 -116 58.5t-31 101.5q0 38 21 193q37 257 37 398q0 30 -4 82q76 -4 111 -24q15 -8 23 -24.5t9.5 -30.5z" />
    <glyph glyph-name="J" unicode="J" horiz-adv-x="518" 
d="M237 163.5q7 48.5 10.5 83t6.5 86t5 93.5q8 168 11 219q-24 -2 -61 -2q-60 0 -60 78q0 34 6 60q76 -18 182 -18t221 36q-6 -61 -43 -94.5t-75 -40.5l-31 -6q-19 -199 -27 -310t-24.5 -176t-39.5 -104t-54 -63t-62 -32.5t-69 -8.5q-93 0 -142 54t-49 115.5t33.5 97
t95.5 35.5q31 0 58 -16q-26 -22 -40.5 -57t-14.5 -71t18.5 -61t55.5 -25t59.5 39.5t29.5 88z" />
    <glyph glyph-name="K" unicode="K" horiz-adv-x="671" 
d="M272.5 723q1.5 -14 1.5 -51t-25 -208l-9 -58q135 111 228 215.5t131 177.5q33 -58 33 -113.5t-56.5 -113.5t-170.5 -142q70 -221 157 -342q37 -51 94 -111q-37 -10 -74 -10t-76 23t-67.5 56t-58.5 88q-43 81 -93 213q-28 -21 -61 -43q-18 -149 -18 -225.5t14 -109.5
q-85 22 -116 58.5t-31 101.5q0 38 21 193q37 257 37 398q0 30 -4 82q76 -4 111 -24q15 -8 23 -24.5t9.5 -30.5z" />
    <glyph glyph-name="L" unicode="L" horiz-adv-x="547" 
d="M28 -12q15 58 61 88q-5 20 -5 55.5t21 190.5q37 257 37 398q0 30 -4 82q76 -4 111 -24q15 -8 23 -24.5t9.5 -30.5t1.5 -51t-30.5 -242.5t-35.5 -323.5q237 0 351 38q-9 -74 -45 -115t-90 -41q-16 0 -89.5 8.5t-155.5 8.5t-160 -17z" />
    <glyph glyph-name="M" unicode="M" horiz-adv-x="927" 
d="M483 188q-36 -14 -56 -14q-60 0 -67 17q-100 257 -132 331q-3 -27 -16 -125q-27 -192 -27 -319q0 -31 4 -83q-70 0 -94.5 16.5t-24.5 46.5q0 10 33.5 272t33.5 365v5q-29 47 -61 77q37 26 89 26q66 0 102 -61.5t141 -337.5l46 -118q6 10 18 27q244 361 251 490
q0 -1 24 -2.5t51.5 -10t40 -26t15.5 -34t3 -56t-33 -265.5t-33 -316.5t14 -123.5q-85 22 -116 58.5t-31 101.5q0 38 20.5 187t28.5 238l-113.5 -189t-88.5 -142.5t-22 -34.5z" />
    <glyph glyph-name="N" unicode="N" horiz-adv-x="821" 
d="M506 38q-18 26 -120.5 222.5l-145.5 273.5q-4 -34 -18 -130q-27 -194 -27 -326q0 -31 4 -83q-70 0 -94.5 16.5t-24.5 46.5q0 9 33 268.5t34 363.5l-9 13q-25 37 -66 62q-10 6 -12 8q48 29 92 29q88 0 129 -57.5t153 -283.5l36.5 -75.5l39.5 -81.5q35 -75 75 -141
q3 39 27.5 239.5t24.5 317.5q0 31 -4 81q70 0 94 -16t24 -45q0 -11 -33 -279t-33 -371q0 -37 2 -54q8 -7 26 -17q-62 -40 -115 -40t-92 59z" />
    <glyph glyph-name="O" unicode="O" horiz-adv-x="802" 
d="M562.5 653q-38.5 63 -105 63t-126 -58.5t-93 -147.5t-33.5 -180q0 -125 41.5 -205t125.5 -80q70 0 123.5 61.5t79.5 152.5t26 191q0 140 -38.5 203zM506.5 5q-67.5 -30 -147.5 -30t-140.5 36t-96.5 96q-72 120 -72 280t79.5 285t212.5 158q8 -2 15.5 -8t8.5 -13
q-129 -94 -156 -256q42 118 126.5 184.5t181.5 66.5t165.5 -83.5t68.5 -241.5q0 -155 -58 -279q-30 -66 -75 -115.5t-112.5 -79.5z" />
    <glyph glyph-name="P" unicode="P" horiz-adv-x="621" 
d="M105 3q-25 20 -25 67t33.5 284.5t33.5 339t-14 132.5q102 -8 134 -80q77 42 169.5 42t146 -57.5t53.5 -141.5q0 -104 -76 -188q-37 -40 -95.5 -65t-129.5 -25q-30 0 -57 4l-3 42h8q113 0 180 84q46 60 46 126q0 97 -79 128q-67 25 -150 -10v-2q0 -38 -28.5 -248.5
t-28.5 -351.5q0 -63 6 -98q-32 -2 -42 -2q-57 0 -82 20z" />
    <glyph glyph-name="Q" unicode="Q" horiz-adv-x="787" 
d="M247 -156q-115 35 -194 37q43 73 133 73h1q94 11 168.5 48t120 86.5t75.5 111.5q53 111 53 237q0 167 -70 241q-37 39 -96 39t-114 -57t-85.5 -143t-30.5 -176q0 -178 77 -178q33 0 53.5 28.5t20.5 74.5t-12.5 75t-24.5 40l-13 11q31 12 72.5 12t81.5 -30.5t40 -94.5
q0 -97 -63.5 -153.5t-149.5 -56.5t-154.5 72.5t-68.5 204.5q0 128 62 242q33 60 81 107t120.5 76t160.5 29q110 0 185.5 -84t75.5 -241q0 -139 -56 -259q-32 -66 -80 -120.5t-126 -100t-177 -69.5q386 -121 476 -121q-24 -57 -60.5 -87t-76.5 -30t-194 69.5t-211 86.5z" />
    <glyph glyph-name="R" unicode="R" horiz-adv-x="675" 
d="M100 3q-25 20 -25 67t33.5 284.5t33.5 339t-14 132.5q101 -8 134 -79q72 40 163.5 40t150 -52.5t58.5 -121.5t-47 -137.5t-140 -103.5l13 -39q36 -112 104 -221.5t111 -149.5q-37 -10 -73.5 -10t-73.5 23.5t-61.5 51.5t-54.5 89t-43 95l-28.5 75t-16.5 44t-3 7.5t-3 8.5
h-43l-3 46q127 5 189 91q34 48 34 98q0 19 -4 37q-17 65 -81 81q-18 5 -50 5t-85 -21q0 -38 -28.5 -248.5t-28.5 -351.5q0 -63 6 -98q-32 -2 -42 -2q-57 0 -82 20z" />
    <glyph glyph-name="S" unicode="S" horiz-adv-x="629" 
d="M260 710.5q-30 -27.5 -30 -77.5t25.5 -89.5t63 -67l82 -59.5l82 -60.5t63 -70.5t25.5 -89q0 -93 -76 -157.5t-199.5 -64.5t-195.5 53t-72 120t40 104.5t103 37.5q18 0 34 -4q-31 -46 -31 -99.5t33 -92t87.5 -38.5t91.5 28.5t37 73t-25 78.5t-62 58.5l-81 56t-81 63.5
t-62 81.5t-25 108.5q0 95 69 151.5t186 56.5t177.5 -52.5t60.5 -112t-38 -100t-103 -40.5q-22 0 -43 4q49 52 49 109.5t-32 87.5t-77.5 30t-75.5 -27.5z" />
    <glyph glyph-name="T" unicode="T" horiz-adv-x="543" 
d="M20 721q2 39 8 60q108 -18 259 -18t316 36q-17 -127 -129 -139q-35 -5 -108 -10q-2 -29 -33 -253.5t-31 -309.5t14 -118q-85 22 -116 58.5t-31 90.5t25.5 234.5t30.5 290.5q-81 -4 -159 -4q-46 0 -46 82z" />
    <glyph glyph-name="U" unicode="U" horiz-adv-x="755" 
d="M683.5 723q1.5 -14 1.5 -51t-33 -263t-33 -316.5t14 -123.5q-85 22 -116 58.5t-31 101.5q0 20 1 31q-91 -180 -249 -180q-84 0 -126 57.5t-42 182.5q0 71 22.5 256t22.5 240.5t-11 85.5q83 -21 114.5 -55.5t31.5 -97t-20 -199t-20 -220t24 -118.5t67 -35q51 0 99 45
q98 93 128 357v2q16 139 16 204t-4 117q76 -4 111 -24q15 -8 23 -24.5t9.5 -30.5z" />
    <glyph glyph-name="V" unicode="V" horiz-adv-x="661" 
d="M342 0q-8 -3 -40 -8.5t-58.5 -5.5t-30.5 15q-18 62 -54 242.5t-72.5 327.5t-70.5 195q55 26 87 26t46 -7t27.5 -31t23.5 -64q15 -60 37 -178t25 -130q35 -178 46 -244q65 139 144 369.5t79 299.5q113 -19 113 -74q0 -41 -56.5 -173.5l-136 -305t-109.5 -254.5z" />
    <glyph glyph-name="W" unicode="W" horiz-adv-x="983" 
d="M670 0q-7 -3 -38.5 -8.5t-59 -5.5t-27.5 15q-13 53 -64 379q-138 -307 -164 -380q-7 -3 -39 -8.5t-59 -5.5t-27 15q-15 63 -42 243t-56 327t-60 195q55 26 90.5 26t51.5 -13t29.5 -56.5t24.5 -121t19.5 -146t8.5 -69.5t1 -9.5t15.5 -109l18.5 -129.5q77 165 159 408
q-32 166 -65 220q55 26 90.5 26t51.5 -13t29.5 -56.5t24.5 -121t19.5 -146t8.5 -69.5t1 -9.5t15.5 -109l18.5 -129.5q70 182 142 393t76 276q108 -22 108 -70q0 -65 -206 -517q-80 -177 -96 -220z" />
    <glyph glyph-name="X" unicode="X" horiz-adv-x="671" 
d="M571 -33q-82 0 -147 86t-131 243q-137 -159 -194 -327q-82 53 -83 111t59 132t177 186l-22 56l-28 70.5t-17.5 42.5t-16.5 38t-18 39.5l-17.5 35.5t-18.5 36q-25 41 -39 60q57 27 93 27t57.5 -18.5t47 -73t36.5 -82.5t28.5 -77.5t19.5 -54.5q101 99 158 174t60 138
q40 -17 60 -44t20 -51.5t-12.5 -52t-42 -60.5t-55 -58l-74.5 -70l-78 -73q112 -290 242 -428q-26 -5 -64 -5z" />
    <glyph glyph-name="Y" unicode="Y" horiz-adv-x="565" 
d="M281 404l7 -39q92 143 149.5 270t67.5 198q75 -42 75 -111q0 -74 -253 -439q-16 -135 -16 -208t14 -106q-85 22 -116 58.5t-31 92t15 158.5q-107 382 -185 499q41 26 86 26q24 0 40.5 -4.5t32.5 -20.5t27.5 -41t25.5 -73q24 -76 61 -260z" />
    <glyph glyph-name="Z" unicode="Z" horiz-adv-x="621" 
d="M105 719q2 46 8 65q123 -17 250 -17t180 6q17 40 22 65q66 -66 66 -132q0 -65 -101 -190l-99 -120q-144 -167 -223 -290h15q243 0 359 38q-9 -74 -45 -115t-90 -41q-28 0 -116 11t-181 11t-171 -20q20 77 95 104q288 340 425 589q-261 -56 -346 -56q-48 0 -48 92z" />
    <glyph glyph-name="bracketleft" unicode="[" horiz-adv-x="379" 
d="M262 -139q-147 0 -147 65q0 20 5 70q30 299 39 476t13 241q4 70 157 70l-3 -17l3 17h70q36 0 40 -74q-58 5 -121 6q-34 -231 -45.5 -387.5t-11.5 -388.5v-10q57 1 111 6q-4 -74 -40 -74h-70z" />
    <glyph glyph-name="backslash" unicode="\" horiz-adv-x="376" 
d="M41 868q15 -89 106.5 -306.5l174.5 -410t83 -234t-28.5 -65.5t-56.5 -29l-29 -5q-14 102 -96.5 319.5l-157.5 403.5t-75 220.5t20 60.5t40 36z" />
    <glyph glyph-name="bracketright" unicode="]" horiz-adv-x="379" 
d="M117 783q147 0 147 -65q0 -20 -5 -70q-30 -299 -39 -476t-13 -241q-4 -70 -157 -70h-70q-36 0 -40 74q59 -5 121 -6q32 228 44.5 386t12.5 390v10q-56 -1 -111 -6q4 74 40 74h70zM50 -139l5 30zM55 -109q0 4 2 10z" />
    <glyph glyph-name="asciicircum" unicode="^" 
d="M301 759q37 17 80 17t47 -18q31 -145 60.5 -230.5t80.5 -175.5q-29 -25 -96 -25q-50 0 -80 74t-61 273q-114 -180 -183 -346q-44 13 -61 31t-17 50.5t58.5 119t171.5 230.5z" />
    <glyph glyph-name="underscore" unicode="_" horiz-adv-x="463" 
d="M250.5 0q72.5 7 123.5 7t70 -27.5t19 -81.5q0 -4 -0.5 -11.5t-0.5 -11.5q-70 11 -123.5 11t-126 -7t-123.5 -7t-70 27.5t-19 81.5q0 4 0.5 11.5t0.5 11.5q70 -11 123.5 -11t126 7z" />
    <glyph glyph-name="grave" unicode="`" horiz-adv-x="372" 
d="M352 652q-2 -11 -14 -20.5t-28 -12.5q-38 43 -98.5 83.5t-123.5 57.5q3 69 63 107q56 -23 115 -88.5t86 -126.5z" />
    <glyph glyph-name="a" unicode="a" horiz-adv-x="635" 
d="M186 189q0 -47 17.5 -76.5t49.5 -29.5q47 0 89.5 55t68 141t25.5 163.5t-6 125.5q30 2 42 2q51 0 77 -19t26 -68q0 -19 -24 -154.5t-24 -217t31 -144.5q-75 13 -110 55.5t-35 122.5q0 14 4 54q-27 -95 -96 -153t-135.5 -58t-107 49.5t-40.5 140.5t32.5 176.5t97.5 145
t145 59.5q46 0 94 -22q-101 -36 -161 -141.5t-60 -206.5z" />
    <glyph glyph-name="b" unicode="b" horiz-adv-x="641" 
d="M241.5 888.5q26.5 -49.5 26.5 -109.5t-19 -204.5t-26 -230.5q30 107 85.5 170t119.5 63t110.5 -61t46.5 -156q0 -147 -78.5 -253.5t-179.5 -106.5q-35 0 -70 16q43 12 78 49t57 85q45 100 45 200q0 49 -18.5 86t-49.5 37q-50 0 -101.5 -102t-54.5 -254v-19q2 -35 17 -116
q-144 33 -144 207q0 71 33.5 286t33.5 314t-9 168q71 -19 97.5 -68.5z" />
    <glyph glyph-name="c" unicode="c" horiz-adv-x="545" 
d="M193 226q0 -167 98 -167q38 0 77 26t68 72q36 -8 36 -37q-42 -73 -103 -104t-122 -31q-82 0 -139.5 60.5t-57.5 175.5q0 147 81 251.5t219 104.5q77 0 116 -37.5t39 -89t-31.5 -89.5t-80.5 -38q-24 0 -48 10q15 17 28 53.5t13 67.5q0 61 -53 61q-62 0 -101 -91t-39 -198z
" />
    <glyph glyph-name="d" unicode="d" horiz-adv-x="616" 
d="M184 202q0 -119 72 -119q38 0 74 41t58.5 110t39 147.5t24.5 166.5q14 170 14 265.5t-8 143.5q72 -16 101 -68t29 -131t-33.5 -294t-33.5 -314t9 -168q-71 19 -97.5 68.5t-26.5 124.5q-31 -86 -93 -136t-128 -50t-107.5 50.5t-41.5 148.5q0 155 85 266.5t201 111.5
q33 0 104 -16q-62 -16 -110.5 -55.5t-75.5 -90.5q-56 -101 -56 -202z" />
    <glyph glyph-name="e" unicode="e" horiz-adv-x="560" 
d="M291 246q-48 0 -94 11q-1 -10 -1 -31q0 -83 31 -125t74 -42t82 26t68 72q36 -8 36 -37q-88 -135 -227 -135q-84 0 -147 64.5t-63 179.5q0 86 33 163.5t105 131t159.5 53.5t128.5 -40t41 -105q0 -94 -65.5 -140t-160.5 -46zM333 515q-51 0 -86 -63t-46 -153h15
q87 0 128.5 45t41.5 108q0 26 -13.5 44.5t-39.5 18.5z" />
    <glyph glyph-name="f" unicode="f" horiz-adv-x="408" 
d="M409 584q2 -20 2 -30q0 -48 -17 -66.5t-59.5 -18.5t-65.5 1q-39 -284 -39 -407q0 -59 2.5 -85.5t13.5 -90.5q-72 23 -106 74.5t-34 121.5q0 105 30 310q7 52 9 69q-53 -9 -108 -34q-2 22 -2 33q0 54 33 73t95 20q20 98 53.5 169t73.5 107q76 70 159 70q56 0 94.5 -33.5
t38.5 -82t-33 -84.5t-87 -36q-21 0 -41 7q16 12 31.5 42t15.5 56.5t-11.5 41.5t-30.5 15q-41 0 -83.5 -68.5t-63.5 -206.5q89 0 130 33z" />
    <glyph glyph-name="g" unicode="g" horiz-adv-x="619" 
d="M371 567q19 0 29 -2q26 -5 28 -37q-109 -23 -173.5 -118t-64.5 -198q0 -120 73 -120q44 0 79 48q62 87 87 272q19 146 71 188q25 21 62 33q-14 -106 -14 -160q0 -400 -85.5 -601t-278.5 -201q-78 0 -122 41.5t-44 91t31 81t87 31.5q23 0 47 -10q-38 -25 -38 -77
q0 -35 21 -60.5t51.5 -25.5t53.5 12.5t47 44.5t42 80q41 111 45 303q-29 -86 -88 -138t-120 -52q-77 0 -117.5 58.5t-40.5 149.5q0 106 51 197q57 105 158 146q56 23 123 23z" />
    <glyph glyph-name="h" unicode="h" horiz-adv-x="621" 
d="M208 309q33 113 103 190.5t130.5 77.5t86 -36.5t25.5 -99t-19.5 -175.5t-19.5 -164.5t13 -75t44 -40.5q-13 -1 -37 -1q-84 0 -119.5 26t-35.5 91q0 37 20 144.5t20 160.5q0 66 -40 66q-24 0 -53 -27t-55.5 -73.5t-44.5 -119.5t-18 -145.5t6 -107.5q-32 -2 -42 -2
q-57 0 -82 19.5t-25 62.5t17 164q54 372 54 565q0 87 -12 117q75 -20 102.5 -60.5t27.5 -114.5q0 -50 -19.5 -210t-26.5 -232z" />
    <glyph glyph-name="i" unicode="i" horiz-adv-x="321" 
d="M232.5 339.5q-24.5 -142.5 -25 -235t11.5 -119.5q-78 20 -105 60.5t-27 118.5q0 42 16 152t16 171t-6 94q22 2 41 2q58 0 80.5 -19.5t22.5 -66.5q0 -15 -24.5 -157.5zM272 671q-28 -4 -49 -4q-103 0 -103 72q0 26 15 71q28 4 49 4q103 0 103 -72q0 -26 -15 -71z" />
    <glyph glyph-name="j" unicode="j" horiz-adv-x="331" 
d="M225.5 565q22.5 -18 22.5 -71.5t-3 -118t-12 -150t-23.5 -160.5t-40.5 -150t-59.5 -128.5t-84.5 -87t-109.5 -33.5t-97 33.5t-38.5 82t33 84.5t87 36q21 0 41 -7q-16 -12 -31.5 -42t-15.5 -56.5t11.5 -41.5t30.5 -15q48 0 84 63t54 167q35 202 35 442q0 104 -4 169
q22 2 43 2q55 0 77.5 -18zM254 672q-28 -4 -49 -4q-103 0 -103 72q0 26 15 71q28 4 49 4q103 0 103 -72q0 -26 -15 -71z" />
    <glyph glyph-name="k" unicode="k" horiz-adv-x="574" 
d="M203 309q36 205 147 257q28 13 55 13q53 0 90 -39t37 -100t-34.5 -104.5t-96.5 -67.5l12 -37q33 -103 96 -204t102 -138q-36 -9 -64 -9q-101 0 -177 147q-30 58 -88 217q-13 -1 -38 -1q-6 5 -6 32q46 1 82 16t56 39q38 49 38 103q0 27 -11.5 44.5t-32.5 17.5
q-37 0 -75.5 -53t-65 -147.5t-26.5 -177t6 -117.5q-32 -2 -42 -2q-57 0 -82 19.5t-25 62.5t18 164q53 372 53 565q0 87 -12 117q75 -20 102.5 -60.5t27.5 -114.5q0 -50 -19.5 -210t-26.5 -232z" />
    <glyph glyph-name="l" unicode="l" horiz-adv-x="299" 
d="M70 63.5q-3 18.5 -3 57.5t33.5 307t33.5 368t-12 130q75 -20 102.5 -60.5t27.5 -114.5q0 -44 -29 -286t-29 -390q0 -32 4 -90q-91 4 -113 40q-12 20 -15 38.5z" />
    <glyph glyph-name="m" unicode="m" horiz-adv-x="895" 
d="M502 106q0 -50 6 -106q-32 -2 -42 -2q-56 0 -81 19.5t-25 57.5t21.5 156.5t21.5 180t-40 61.5q-22 0 -48 -26.5t-49 -72t-38.5 -116.5t-15.5 -136.5t6 -121.5q-32 -2 -42 -2q-56 0 -81 19.5t-25 65.5q0 11 20.5 149t20.5 218.5t-17 147.5q74 -23 103 -66t29 -106
q0 -32 -7 -81q34 100 94.5 166t117 66t82 -42t25.5 -121q38 73 87 118t90 45q61 0 86.5 -36.5t25.5 -99t-19.5 -175.5t-19.5 -164.5t13 -75t44 -40.5q-13 -1 -37 -1q-84 0 -119.5 26t-35.5 91q0 37 20 144.5t20 160.5q0 66 -40 66q-30 0 -64.5 -43.5t-60.5 -131t-26 -192.5z
" />
    <glyph glyph-name="n" unicode="n" horiz-adv-x="626" 
d="M532.5 540.5q25.5 -36.5 25.5 -99t-19.5 -175.5t-19.5 -164.5t13 -75t44 -40.5q-13 -1 -37 -1q-84 0 -119.5 26t-35.5 91q0 37 20 144.5t20 160.5q0 66 -40 66q-23 0 -52 -27t-56 -73.5t-45 -119.5t-18 -145.5t6 -107.5q-32 -2 -42 -2q-57 0 -82 20t-25 66q0 20 21 154
t21 213.5t-17 146.5q73 -23 102 -65.5t29 -97t-12 -126.5q33 112 104 190t130 78t84.5 -36.5z" />
    <glyph glyph-name="o" unicode="o" horiz-adv-x="617" 
d="M361 501q-65 0 -116 -87.5t-51 -174.5q0 -182 94 -182q67 0 109 87.5t42 196.5q0 160 -78 160zM276 591q11 0 20.5 -6.5t9.5 -13.5q-101 -70 -121 -195q21 56 51.5 97t63.5 62q63 39 123 39t102 -59t42 -158q0 -111 -45 -204q-50 -105 -142 -145q-52 -23 -114 -23
q-87 0 -151.5 67.5t-64.5 194t62 223t164 121.5z" />
    <glyph glyph-name="p" unicode="p" horiz-adv-x="649" 
d="M225 371q42 86 105.5 134t125.5 48t102.5 -49.5t40.5 -143.5q0 -150 -82 -255t-197 -105q-41 0 -83 16q98 23 156 127t58 207q0 48 -17.5 78t-49.5 30q-61 0 -108 -74t-72 -202.5t-25 -268t20 -242.5q-82 3 -121.5 26.5t-39.5 89.5q0 24 30.5 253.5t30.5 353.5t-15 209
q80 -20 110.5 -74t30.5 -158z" />
    <glyph glyph-name="q" unicode="q" horiz-adv-x="637" 
d="M424 216q-94 -216 -244 -216q-63 0 -103.5 48t-40.5 139q0 144 79 260t190 116q46 0 94 -22q-65 -22 -116 -81.5t-75 -127.5t-24 -124q0 -115 66 -115q73 0 128 107.5t55 253.5q0 66 -6 114q30 2 42 2q48 0 73 -19t25 -68q0 -23 -27 -190.5t-37 -292.5q74 31 97 72
q19 -35 19 -61q0 -38 -41 -54q-24 -9 -80 -27q-2 -64 -2 -124.5t11 -134.5q-77 3 -114 25.5t-37 86.5q0 22 12 96q-38 -22 -67 -49q-9 20 -9 36q0 51 90 88q30 160 42 262z" />
    <glyph glyph-name="r" unicode="r" horiz-adv-x="463" 
d="M217 325q36 130 86.5 191.5t94 61.5t65.5 -32.5t22 -84t-30.5 -94.5t-83.5 -43q-14 0 -33 8q31 39 31 94q0 32 -26 32q-19 0 -41 -26.5t-42 -73t-33.5 -119t-13.5 -154.5q0 -10 5 -85q-32 -2 -41 -2q-57 0 -82 20t-25 66q0 20 21 154t21 213.5t-17 146.5
q73 -23 102 -65.5t29 -99t-9 -108.5z" />
    <glyph glyph-name="s" unicode="s" horiz-adv-x="502" 
d="M234 499.5q-22 -18.5 -22 -52.5t23.5 -64t57.5 -52.5l68.5 -46t60.5 -58t29 -76.5q0 -72 -62 -121t-154 -49t-144.5 37t-52.5 85t29.5 77.5t73.5 29.5q23 0 43 -8q-32 -34 -32 -72t21 -61t57 -23t60.5 18.5t24.5 48t-17 52.5t-42.5 40.5l-55.5 39.5t-55.5 44.5t-42.5 57
t-17 75.5q0 71 58.5 116.5t146 45.5t128 -34t40.5 -79.5t-28.5 -77.5t-73.5 -32q-22 0 -50 9q22 19 34 43.5t12 48.5t-20 40.5t-48 16.5t-50 -18.5z" />
    <glyph glyph-name="t" unicode="t" horiz-adv-x="386" 
d="M276 470q-5 -36 -21 -125q-34 -189 -34 -280t14 -122q-77 20 -106 61.5t-29 117.5q0 67 21 183.5t27 157.5q-52 -9 -111 -35q-2 22 -2 33q0 53 32 72.5t92 20.5q7 75 7 108t-0.5 55t-0.5 33q66 -7 96 -39.5t30 -92.5q0 -24 -5 -67q84 2 123 33q2 -20 2 -30
q0 -48 -17 -66.5t-57 -18.5t-61 1z" />
    <glyph glyph-name="u" unicode="u" horiz-adv-x="606" 
d="M393 577q30 2 42 2q52 0 79 -19t27 -70q0 -16 -19 -140.5t-19 -213.5t19 -157q-75 24 -104 68t-29 109q0 25 11 113q-31 -114 -94.5 -191.5t-119.5 -77.5q-115 0 -115 166q0 55 16.5 153.5t16.5 149.5t-14 103q83 0 120.5 -21.5t37.5 -85.5q0 -34 -21 -135t-21 -152
q0 -74 40 -74q20 0 46 27.5t50 73t40.5 114t16.5 139t-6 119.5z" />
    <glyph glyph-name="v" unicode="v" horiz-adv-x="516" 
d="M266 0q-32 -14 -67 -14t-39 15q-16 64 -37 191.5t-42.5 223t-51.5 144.5q55 26 88 26t50 -15t28.5 -59.5t16.5 -73.5q14 -96 14 -107t8 -89.5t12 -103.5q178 345 178 461q82 -42 82 -91q0 -40 -41.5 -118.5l-104 -190t-94.5 -199.5z" />
    <glyph glyph-name="w" unicode="w" horiz-adv-x="769" 
d="M547 0q-25 -14 -61.5 -14t-40.5 15q-18 82 -32 182l-18 127q-105 -217 -141 -310q-24 -14 -61 -14t-41 15q-15 64 -32 191.5t-36 223t-48 144.5q55 26 85.5 26t45 -10.5t24 -34t15.5 -50.5t10 -69.5t7 -81.5q11 -147 18 -202q88 210 124 329q-16 58 -36 93q55 26 85.5 26
t45 -10.5t24 -34t15.5 -50.5t10 -69.5t7 -81.5q11 -147 18 -202q148 348 151 461q79 -42 79 -85.5t-39 -133t-97 -206t-81 -174.5z" />
    <glyph glyph-name="x" unicode="x" horiz-adv-x="555" 
d="M451 -30q-70 0 -120.5 60.5t-94.5 169.5q-88 -108 -128 -242q-75 62 -75 110q0 35 43.5 86.5t127.5 129.5q-64 173 -87.5 214.5t-38.5 61.5q50 26 91 26q33 0 54 -28q25 -31 38 -66.5t19.5 -56l19.5 -60.5q143 140 158 220q59 -50 59 -87q0 -26 -18 -53t-38 -45.5
t-65.5 -56t-69.5 -59.5q35 -97 94 -189t95 -126q-36 -9 -64 -9z" />
    <glyph glyph-name="y" unicode="y" horiz-adv-x="516" 
d="M506 508q0 -35 -30 -94.5t-73 -131.5t-86 -153.5t-73 -184t-30 -200.5q0 -45 7 -86q-81 15 -110 44.5t-29 69.5q0 55 80 217q-15 62 -37 194.5t-44.5 230.5t-51.5 146q55 26 88 26t50 -15t28.5 -59.5t16.5 -73.5q14 -96 14 -107t8 -89.5t12 -103.5q178 345 178 461
q82 -42 82 -91z" />
    <glyph glyph-name="z" unicode="z" horiz-adv-x="495" 
d="M346 459l-200 -19q-40 0 -55.5 16.5t-15.5 50.5t8 64q99 -19 186 -19t138 4q20 38 28 68q60 -55 60 -95.5t-46.5 -98t-134 -151.5t-141.5 -165q86 -4 152.5 -4t134.5 12q5 -32 5 -64.5t-18 -51t-63 -18.5q-19 0 -111.5 10.5t-160 10.5t-132.5 -22q17 97 74 118
q182 195 292 354z" />
    <glyph glyph-name="braceleft" unicode="{" horiz-adv-x="372" 
d="M228 277q24 -47 24 -92.5t-6.5 -101t-6.5 -85t14.5 -48.5t45 -19t51.5 4q0 -43 -15 -58.5t-58 -15.5q-99 0 -138.5 32.5t-39.5 96.5q0 23 7 82.5t7 95.5q0 141 -68 144l2 36q54 9 74 70q17 53 17 130v47q0 99 44.5 143.5t153.5 44.5q36 0 51 -18t15 -56q-24 3 -42 3
q-48 0 -63 -23t-15 -79q0 -107 -26 -184.5t-82 -95.5q30 -6 54 -53z" />
    <glyph glyph-name="bar" unicode="|" horiz-adv-x="456" 
d="M154 -122q0 57 7.5 227.5t7.5 277.5q0 368 -14 484q77 0 112 -15.5t35 -48.5q0 -56 -7.5 -184t-7.5 -236q0 -461 14 -569q-77 0 -112 15.5t-35 48.5z" />
    <glyph glyph-name="braceright" unicode="}" horiz-adv-x="372" 
d="M144 367q-24 47 -24 92.5t6.5 101t6.5 85t-14.5 48.5t-45 19t-51.5 -4q0 43 15 58.5t58 15.5q99 0 141 -33t42 -96q0 -23 -9.5 -82.5t-9.5 -95.5q0 -141 68 -144l-2 -36q-54 -9 -74 -70q-17 -53 -17 -130v-47q0 -99 -44.5 -143.5t-153.5 -44.5q-36 0 -51 18t-15 56
q24 -3 42 -3q48 0 63 23t15 79q0 107 26 184.5t82 95.5q-30 6 -54 53z" />
    <glyph glyph-name="asciitilde" unicode="~" 
d="M420 281q-43 0 -123.5 15.5t-110.5 15.5q-96 0 -142 -43q0 107 36 141q37 35 119 35q44 0 124.5 -15.5t110.5 -15.5q96 0 142 43q0 -107 -36 -141q-37 -35 -120 -35z" />
    <glyph glyph-name="exclamdown" unicode="&#xa1;" horiz-adv-x="286" 
d="M26 -160q0 31 18 98q53 205 53 317q0 51 -8 70q69 -18 95 -52.5t26 -94.5t-25 -185t-25 -178.5t3 -69.5q-53 0 -95 23.5t-42 71.5zM238 407q-35 -10 -71 -10q-74 0 -74 62q0 20 18 85q35 10 71 10q74 0 74 -62q0 -20 -18 -85z" />
    <glyph glyph-name="cent" unicode="&#xa2;" 
d="M237 313q0 -167 98 -167q38 0 77 26t68 72q36 -8 36 -37q-59 -102 -164 -128q-20 -107 -20 -177q-21 0 -48 8q-53 15 -53 69q0 34 14 98q-66 15 -108.5 73.5t-42.5 157.5q0 133 67.5 233.5t185.5 118.5q28 121 32 172q28 0 51 -22t23 -55t-13 -96q54 -11 81.5 -45
t27.5 -81t-31.5 -85t-80.5 -38q-24 0 -48 10q15 17 28 53.5t13 67.5q0 61 -53 61q-62 0 -101 -91t-39 -198z" />
    <glyph glyph-name="sterling" unicode="&#xa3;" 
d="M28 340l36 -1q40 0 79 6q0 1 1 3q32 196 93.5 283.5t157.5 87.5q73 0 108.5 -33t35.5 -80t-31 -80t-84 -33q-21 0 -41 7q21 14 35.5 38.5t14.5 48t-12 39t-36.5 15.5t-44.5 -23.5t-34 -68.5q-22 -74 -35 -183q66 11 105.5 11t62 -19t33.5 -70q-16 9 -67.5 9t-145.5 -17
q-23 -127 -67 -175l154 -4q111 0 175 29q-4 -81 -26.5 -115t-80.5 -34q-20 0 -103.5 10.5t-155 10.5t-135.5 -23q0 9 3 25.5t24 47t56 43.5q12 36 29 163q-24 -2 -31 -2q-66 0 -73 84z" />
    <glyph glyph-name="yen" unicode="&#xa5;" 
d="M90 405l36 -1q22 0 66 4q-54 163 -132 285q42 26 87 26q26 0 39.5 -13.5t21 -24.5t15.5 -30.5t14 -37t14.5 -47.5l15 -54l16.5 -63.5t19 -70.5l10 -36q97 143 135 228.5t51 164.5q72 -41 72 -108q0 -36 -23.5 -79t-75.5 -116q30 -4 48 -23.5t27 -63.5q-17 9 -52 9t-83 -4
l-37 -52q25 4 61.5 4t59 -19t33.5 -70q-16 9 -63.5 9t-110.5 -10q-15 -110 -15 -152.5t3 -74.5q-80 3 -104 29.5t-24 73t6 100.5q-46 -7 -63 -7q-66 0 -73 84l36 -1q49 0 111 10v1q-9 36 -14 51q-28 -5 -54 -5q-66 0 -73 84z" />
    <glyph glyph-name="brokenbar" unicode="&#xa6;" horiz-adv-x="456" 
d="M287 430q-71 0 -94.5 30.5t-23.5 86.5q0 204 -14 320q77 0 112 -15.5t35 -49.5t-7.5 -174t-7.5 -198zM169 251q71 0 94.5 -30.5t23.5 -86.5q0 -204 14 -320q-77 0 -112 15.5t-35 49.5t7.5 174t7.5 198z" />
    <glyph glyph-name="section" unicode="&#xa7;" 
d="M539 270q0 -74 -56 -128.5t-151 -64.5l33.5 -24.5t36 -27l31.5 -26t30.5 -30t20.5 -31.5q22 -34 22 -78q0 -82 -67.5 -139t-175.5 -57t-169 47t-61 106t32.5 91.5t87.5 32.5q15 0 29 -3q-26 -43 -26 -89t29 -79.5t77.5 -33.5t80.5 25t32 63t-21 68t-52 53.5l-68 53.5
t-68 59t-52 71.5t-21 89.5q0 74 45 121.5t134 58.5q-68 48 -107 101.5t-39 133.5t58.5 129.5t161 49.5t152.5 -46t50 -94.5t-31 -82t-84 -33.5q-23 0 -40 8q21 14 35.5 38.5t14.5 48.5q0 47 -29 71t-67 24q-93 0 -93 -97q0 -46 29.5 -87t71 -73l83.5 -63.5t71.5 -72
t29.5 -84.5zM242 310.5q-30 -28.5 -30 -69t30 -69t72.5 -28.5t71.5 28t29 69t-29 69.5t-71.5 28.5t-72.5 -28.5z" />
    <glyph glyph-name="dieresis" unicode="&#xa8;" horiz-adv-x="450" 
d="M217 671q-28 -4 -49 -4q-103 0 -103 72q0 26 15 71q28 4 49 4q103 0 103 -72q0 -26 -15 -71zM427 671q-28 -4 -49 -4q-103 0 -103 72q0 26 15 71q28 4 49 4q103 0 103 -72q0 -26 -15 -71z" />
    <glyph glyph-name="copyright" unicode="&#xa9;" horiz-adv-x="667" 
d="M421 485q32 0 32 -20q-48 -87 -141 -87q-57 0 -95.5 42t-38.5 127.5t49 148t137 62.5q51 0 77 -25.5t26 -60.5t-20 -57.5t-53 -22.5q-10 0 -34 7q11 12 19 35.5t8 42.5q0 38 -29 38q-41 0 -66.5 -53.5t-25.5 -114t20 -88.5t51 -28q47 0 84 54zM370 861q102 0 180 -61
q39 -32 62 -88.5t23 -132.5q0 -125 -90 -215.5t-248 -90.5q-102 0 -179 61q-40 32 -63 88.5t-23 132.5q0 125 90 215.5t248 90.5zM368 814q-127 0 -199 -76.5t-72 -182.5q0 -63 17.5 -110.5t47.5 -73.5q59 -51 137 -51q127 0 199 76.5t72 182.5q0 63 -17.5 110.5t-47.5 73.5
q-59 51 -137 51z" />
    <glyph glyph-name="ordfeminine" unicode="&#xaa;" horiz-adv-x="391" 
d="M191 777q32 0 58 -14v21h34q36 0 54 -12.5t18 -40t-14.5 -103.5t-14.5 -121t24 -93q-101 16 -110 93q-24 -37 -58 -57.5t-71.5 -20.5t-64.5 30.5t-27 89.5q0 84 48.5 156t123.5 72zM160 665q-33 -58 -33 -112.5t29 -54.5q36 0 66 66.5t30 143.5q0 13 -2 41
q-57 -26 -90 -84z" />
    <glyph glyph-name="guillemotleft" unicode="&#xab;" horiz-adv-x="638" 
d="M60 307l3 20q35 16 79 101q17 35 36 68q42 78 85.5 78t103.5 -55q-30 -10 -59.5 -43t-66 -87t-50.5 -72q11 -19 36 -72.5t47.5 -86.5t49.5 -43q-72 -55 -115 -55q-28 0 -49 34t-31.5 76.5t-28.5 84t-40 52.5zM301 307l3 20q43 20 96 137q20 42 48.5 76t56.5 34
q43 0 103 -55q-30 -10 -59.5 -43t-66 -87t-50.5 -72q11 -19 36 -72.5t47.5 -86.5t49.5 -43q-72 -55 -115 -55q-28 0 -49 34t-31.5 76.5t-28.5 84t-40 52.5z" />
    <glyph glyph-name="logicalnot" unicode="&#xac;" 
d="M575 315l-8 -189q-27 -5 -47 -5q-69 0 -69 68q0 30 23 116q-14 1 -49.5 1t-128.5 -8.5t-150 -8.5t-79 27.5t-22 81.5q0 4 0.5 11.5t0.5 11.5q81 -11 143 -11t143.5 7t140 7t80.5 -27.5t22 -81.5z" />
    <glyph glyph-name="registered" unicode="&#xae;" horiz-adv-x="667" 
d="M227 731q59 21 118 21q115 0 115 -81q0 -32 -21 -64t-64 -49q30 -114 88 -172q-29 -6 -47.5 -6t-36.5 10.5t-30.5 32t-19.5 38t-16.5 46l-12.5 38.5l-22 -2q-11 -80 -11 -160q-12 -2 -27 -2q-55 0 -55 38q0 20 20 135.5t22 176.5zM298 699q-7 -66 -16 -124q45 3 72.5 28
t27.5 50q0 53 -47 53q-17 0 -37 -7zM368 814q-127 0 -199 -76.5t-72 -182.5q0 -63 17.5 -110.5t47.5 -73.5q59 -51 137 -51q127 0 199 76.5t72 182.5q0 63 -17.5 110.5t-47.5 73.5q-59 51 -137 51zM370 861q102 0 180 -61q39 -32 62 -88.5t23 -132.5q0 -125 -90 -215.5
t-248 -90.5q-102 0 -179 61q-40 32 -63 88.5t-23 132.5q0 125 90 215.5t248 90.5z" />
    <glyph glyph-name="macron" unicode="&#xaf;" horiz-adv-x="424" 
d="M225.5 786q49.5 7 85 7t49.5 -26.5t14 -77.5q0 -4 -0.5 -11t-0.5 -11q-49 11 -87 11t-87.5 -7t-85 -7t-49.5 26.5t-14 77.5q0 4 0.5 11t0.5 11q50 -11 87.5 -11t87 7z" />
    <glyph glyph-name="degree" unicode="&#xb0;" horiz-adv-x="404" 
d="M231 784q60 0 101.5 -35.5t41.5 -111.5t-53.5 -131.5t-147.5 -55.5q-60 0 -101.5 35.5t-41.5 111t53.5 131.5t147.5 56zM212 719q-37 0 -57 -31.5t-20 -79t16.5 -70.5t47.5 -23t51 31.5t20 78t-17 70.5t-41 24z" />
    <glyph glyph-name="plusminus" unicode="&#xb1;" 
d="M407 396l-39 -1q0 -55 -4.5 -113.5t-33.5 -80.5t-83 -22q-4 0 -11.5 0.5t-11.5 0.5q22 112 25 206q-58 -4 -94 -4q-66 0 -88 27.5t-22 81.5q0 4 0.5 11.5t0.5 11.5q81 -11 136 -11t68 1q0 54 4.5 112.5t33.5 80.5t83 22q4 0 11.5 -0.5t11.5 -0.5q-22 -111 -26 -205
q60 4 97 4q66 0 88 -27.5t22 -81.5q0 -4 -0.5 -11.5t-0.5 -11.5q-81 11 -167 11zM309.5 122q81.5 7 140 7t80.5 -27.5t22 -81.5q0 -4 -0.5 -11.5t-0.5 -11.5q-81 11 -143 11t-143.5 -7t-140 -7t-80.5 27.5t-22 81.5q0 4 0.5 11.5t0.5 11.5q81 -11 143 -11t143.5 7z" />
    <glyph glyph-name="twosuperior" unicode="&#xb2;" horiz-adv-x="412" 
d="M272 275l-167 12q-58 0 -110 -23q0 22 9 47q19 46 69 56q166 136 166 231q0 26 -14 41t-31.5 15t-30 -13t-12.5 -41.5t25 -59.5q-13 -4 -30 -4q-36 0 -60.5 21t-24.5 61.5t36.5 72.5t101.5 32t108 -30.5t43 -87t-44 -118.5t-130 -119h56q63 0 118 25q-3 -64 -19.5 -91
t-58.5 -27z" />
    <glyph glyph-name="threesuperior" unicode="&#xb3;" horiz-adv-x="412" 
d="M310 694.5q39 -27.5 39 -82t-66 -96.5q33 -14 52.5 -43.5t19.5 -63.5q0 -52 -48.5 -97t-121.5 -45t-106.5 30.5t-33.5 68t21.5 61.5t55 24t55.5 -11q-39 -21 -39 -58q0 -22 12.5 -33.5t34.5 -11.5t40.5 17.5t18.5 46.5t-17.5 50.5t-52.5 27.5q-9 -2 -27 -4l-6 39
q107 18 107 95q0 23 -12.5 36.5t-28 13.5t-27 -11.5t-11.5 -37.5t22 -54q-12 -4 -36 -4t-46 19.5t-22 55.5t33.5 65.5t92 29.5t97.5 -27.5z" />
    <glyph glyph-name="acute" unicode="&#xb4;" horiz-adv-x="372" 
d="M88 652q27 61 86 126.5t115 88.5q60 -38 63 -107q-63 -17 -123.5 -57.5t-98.5 -83.5q-16 3 -28 12.5t-14 20.5z" />
    <glyph glyph-name="mu" unicode="&#xb5;" horiz-adv-x="606" 
d="M393 577q30 2 42 2q52 0 79 -19t27 -70q0 -16 -19 -140.5t-19 -213.5t19 -157q-75 24 -104 68t-29 109q0 25 11 113q-34 -125 -93 -196.5t-146 -71.5q-26 -140 -26 -214.5t8 -93.5q-69 18 -95 52.5t-26 91.5t41 275.5t41 349.5q0 58 -14 110q83 0 120.5 -21.5t37.5 -85.5
q0 -34 -21 -135t-21 -152q0 -74 40 -74q20 0 46 27.5t50 73t40.5 114t16.5 139t-6 119.5z" />
    <glyph glyph-name="paragraph" unicode="&#xb6;" 
d="M474 -329q-78 4 -104.5 30t-26.5 108q0 44 9 121l18 142q8 65 14 119q-152 61 -232 155t-80 204t67.5 186t191.5 76q103 0 158 -52.5t55 -157.5q0 -44 -37 -368.5t-37 -472.5q0 -32 4 -90zM426 682q-29 50 -90.5 50t-90 -42.5t-28.5 -116t51 -146t128 -111.5
q30 303 30 366zM191.5 32.5l25.5 190.5q42 -40 109 -73l-13 -97t-11 -89q-11 -92 -11 -171t28 -112q-76 3 -112 26.5t-36 97.5t20.5 227.5z" />
    <glyph glyph-name="periodcentered" unicode="&#xb7;" horiz-adv-x="303" 
d="M225 249q-35 -10 -71 -10q-74 0 -74 62q0 20 18 85q35 10 71 10q74 0 74 -62q0 -20 -18 -85z" />
    <glyph glyph-name="cedilla" unicode="&#xb8;" horiz-adv-x="292" 
d="M110 -40q68 -4 100 -34.5t32 -82.5t-37.5 -100t-100.5 -66q-54 20 -54 85q48 9 75.5 34.5t27.5 57.5q0 48 -59 69q1 19 16 37z" />
    <glyph glyph-name="onesuperior" unicode="&#xb9;" horiz-adv-x="412" 
d="M266 268q-20 -3 -49.5 -3t-47 18t-17.5 46.5t4.5 74t11.5 100.5t9 78q-42 -23 -57 -23q-24 0 -38 31.5t-14 53.5q120 32 224 80q-28 -254 -28 -340t2 -116z" />
    <glyph glyph-name="ordmasculine" unicode="&#xba;" horiz-adv-x="380" 
d="M219 730q-34 0 -61 -49.5t-27 -103.5q0 -94 45 -94q35 0 56 49t21 111q0 87 -34 87zM198 772q27 14 61.5 14t62.5 -36.5t28 -97.5q0 -88 -47.5 -156.5t-139.5 -68.5q-55 0 -96 41t-41 118.5t38 135.5t102 74q13 0 22.5 -7t9.5 -17z" />
    <glyph glyph-name="guillemotright" unicode="&#xbb;" horiz-adv-x="638" 
d="M578 327l-3 -20q-35 -16 -79 -101q-17 -35 -36 -68q-42 -78 -85.5 -78t-103.5 55q30 10 59.5 43t66 87t50.5 72q-11 19 -36 72.5t-47.5 86.5t-49.5 43q72 55 115 55q28 0 49 -34t31.5 -76.5t28.5 -84t40 -52.5zM337 327l-3 -20q-43 -20 -96 -137q-20 -42 -48.5 -76
t-56.5 -34q-43 0 -103 55q30 10 59.5 43t66 87t50.5 72q-11 19 -36 72.5t-47.5 86.5t-49.5 43q72 55 115 55q28 0 49 -34t31.5 -76.5t28.5 -84t40 -52.5z" />
    <glyph glyph-name="onequarter" unicode="&#xbc;" horiz-adv-x="840" 
d="M475 70q-18 23 -18 44t29 66q101 157 125 270q32 -11 58 -33t26 -43.5t-17.5 -53t-54.5 -85t-59 -92.5q32 1 84 5q6 37 6 93q22 4 49 4q50 0 50 -41q0 -12 -6 -48l34 4q7 -28 7 -43q0 -54 -52 -58q0 -62 6 -91q-20 -3 -49.5 -3t-47 18t-17.5 39t4 38q-135 2 -157 10z
M242 216q-20 -3 -49.5 -3t-47 18t-17.5 46.5t4.5 74t11.5 100.5t9 78q-42 -23 -57 -23q-24 0 -38 31.5t-14 53.5q120 32 224 80q-28 -254 -28 -340t2 -116zM483 768q8 -4 19 -11.5t29.5 -34t18.5 -61.5t-47 -170l-101.5 -303t-68.5 -270q-10 0 -31.5 8t-35 17t-24.5 28
t-11 43q0 45 55 187.5l118.5 310.5t78.5 256z" />
    <glyph glyph-name="onehalf" unicode="&#xbd;" horiz-adv-x="840" 
d="M726 -25l-167 12q-58 0 -110 -23q0 22 9 47q19 46 69 56q166 136 166 231q0 26 -14 41t-31.5 15t-30 -13t-12.5 -41.5t25 -59.5q-13 -4 -30 -4q-36 0 -60.5 21t-24.5 61.5t36.5 72.5t101.5 32t108 -30.5t43 -87t-44 -118.5t-130 -119h56q63 0 118 25q-3 -64 -19.5 -91
t-58.5 -27zM242 216q-20 -3 -49.5 -3t-47 18t-17.5 46.5t4.5 74t11.5 100.5t9 78q-42 -23 -57 -23q-24 0 -38 31.5t-14 53.5q120 32 224 80q-28 -254 -28 -340t2 -116zM483 768q8 -4 19 -11.5t29.5 -34t18.5 -61.5t-47 -170l-101.5 -303t-68.5 -270q-10 0 -31.5 8t-35 17
t-24.5 28t-11 43q0 45 55 187.5l118.5 310.5t78.5 256z" />
    <glyph glyph-name="threequarters" unicode="&#xbe;" horiz-adv-x="840" 
d="M286 642.5q39 -27.5 39 -82t-66 -96.5q33 -14 52.5 -43.5t19.5 -63.5q0 -52 -48.5 -97t-121.5 -45t-106.5 30.5t-33.5 68t21.5 61.5t55 24t55.5 -11q-39 -21 -39 -58q0 -22 12.5 -33.5t34.5 -11.5t40.5 17.5t18.5 46.5t-17.5 50.5t-52.5 27.5q-9 -2 -27 -4l-6 39
q107 18 107 95q0 23 -12.5 36.5t-28 13.5t-27 -11.5t-11.5 -37.5t22 -54q-12 -4 -36 -4t-46 19.5t-22 55.5t33.5 65.5t92 29.5t97.5 -27.5zM490 70q-18 23 -18 44t29 66q101 157 125 270q32 -11 58 -33t26 -43.5t-17.5 -53t-54.5 -85t-59 -92.5q32 1 84 5q6 37 6 93
q22 4 49 4q50 0 50 -41q0 -12 -6 -48l34 4q7 -28 7 -43q0 -54 -52 -58q0 -62 6 -91q-20 -3 -49.5 -3t-47 18t-17.5 39t4 38q-135 2 -157 10zM520 768q8 -4 19 -11.5t29.5 -34t18.5 -61.5t-47 -170l-101.5 -303t-68.5 -270q-10 0 -31.5 8t-35 17t-24.5 28t-11 43
q0 45 55 187.5l118.5 310.5t78.5 256z" />
    <glyph glyph-name="questiondown" unicode="&#xbf;" horiz-adv-x="373" 
d="M299 407q-35 -10 -71 -10q-74 0 -74 62q0 20 18 85q35 10 71 10q74 0 74 -62q0 -20 -18 -85zM176 337q122 -32 122 -118q0 -66 -80 -128l-67.5 -52t-57 -59.5t-23.5 -69t22.5 -54.5t60 -19t61.5 27.5t24 65.5t-25 68q21 8 53.5 8t59.5 -26t27 -69q0 -64 -64.5 -104
t-148 -40t-142 43t-58.5 127q0 50 25.5 91.5t61.5 70.5t73 55q87 62 87 121q0 36 -11 62z" />
    <glyph glyph-name="Agrave" unicode="&#xc0;" horiz-adv-x="645" 
d="M488 2.5q-17 18.5 -29 56t-47 201.5q-23 -20 -75 -22l-171 -6q-61 -149 -90 -265q-96 34 -96 77q0 19 58 142l131.5 279.5t99.5 227.5l18 49q-8 14 -39 51q36 12 62.5 12t44 -4t31 -13.5t24 -19.5t19.5 -29.5t15 -35t13.5 -43.5t12 -48.5l12 -57t15.5 -70.5t28 -129.5
t31.5 -143t33 -106.5t45.5 -93q-58 -28 -94 -28t-53 18.5zM333 609l-61.5 -136.5t-73.5 -166.5h205q-47 216 -70 303zM501 881q-2 -11 -14 -20.5t-28 -12.5q-38 43 -98.5 83.5t-123.5 57.5q3 69 63 107q56 -23 115 -88.5t86 -126.5z" />
    <glyph glyph-name="Aacute" unicode="&#xc1;" horiz-adv-x="645" 
d="M488 2.5q-17 18.5 -29 56t-47 201.5q-23 -20 -75 -22l-171 -6q-61 -149 -90 -265q-96 34 -96 77q0 19 58 142l131.5 279.5t99.5 227.5l18 49q-8 14 -39 51q36 12 62.5 12t44 -4t31 -13.5t24 -19.5t19.5 -29.5t15 -35t13.5 -43.5t12 -48.5l12 -57t15.5 -70.5t28 -129.5
t31.5 -143t33 -106.5t45.5 -93q-58 -28 -94 -28t-53 18.5zM333 609l-61.5 -136.5t-73.5 -166.5h205q-47 216 -70 303zM231 881q27 61 86 126.5t115 88.5q60 -38 63 -107q-63 -17 -123.5 -57.5t-98.5 -83.5q-16 3 -28 12.5t-14 20.5z" />
    <glyph glyph-name="Acircumflex" unicode="&#xc2;" horiz-adv-x="645" 
d="M488 2.5q-17 18.5 -29 56t-47 201.5q-23 -20 -75 -22l-171 -6q-61 -149 -90 -265q-96 34 -96 77q0 19 58 142l131.5 279.5t99.5 227.5l18 49q-8 14 -39 51q36 12 62.5 12t44 -4t31 -13.5t24 -19.5t19.5 -29.5t15 -35t13.5 -43.5t12 -48.5l12 -57t15.5 -70.5t28 -129.5
t31.5 -143t33 -106.5t45.5 -93q-58 -28 -94 -28t-53 18.5zM333 609l-61.5 -136.5t-73.5 -166.5h205q-47 216 -70 303zM543 877q-37 -11 -76.5 -11t-56.5 21.5t-34 88.5q-52 -80 -134 -127q-50 34 -51 89q82 51 123 92l23 23q6 6 22 25.5t20 23.5q36 0 55 -20t26 -48t28 -74
t55 -83z" />
    <glyph glyph-name="Atilde" unicode="&#xc3;" horiz-adv-x="645" 
d="M488 2.5q-17 18.5 -29 56t-47 201.5q-23 -20 -75 -22l-171 -6q-61 -149 -90 -265q-96 34 -96 77q0 19 58 142l131.5 279.5t99.5 227.5l18 49q-8 14 -39 51q36 12 62.5 12t44 -4t31 -13.5t24 -19.5t19.5 -29.5t15 -35t13.5 -43.5t12 -48.5l12 -57t15.5 -70.5t28 -129.5
t31.5 -143t33 -106.5t45.5 -93q-58 -28 -94 -28t-53 18.5zM333 609l-61.5 -136.5t-73.5 -166.5h205q-47 216 -70 303zM507.5 924q-28.5 -30 -61.5 -30t-80.5 14t-66.5 14q-48 0 -75 -43q-23 4 -27 24q8 69 36.5 99t61.5 30t80.5 -14t66.5 -14q48 0 75 43q23 -4 27 -24
q-8 -69 -36.5 -99z" />
    <glyph glyph-name="Adieresis" unicode="&#xc4;" horiz-adv-x="645" 
d="M488 2.5q-17 18.5 -29 56t-47 201.5q-23 -20 -75 -22l-171 -6q-61 -149 -90 -265q-96 34 -96 77q0 19 58 142l131.5 279.5t99.5 227.5l18 49q-8 14 -39 51q36 12 62.5 12t44 -4t31 -13.5t24 -19.5t19.5 -29.5t15 -35t13.5 -43.5t12 -48.5l12 -57t15.5 -70.5t28 -129.5
t31.5 -143t33 -106.5t45.5 -93q-58 -28 -94 -28t-53 18.5zM333 609l-61.5 -136.5t-73.5 -166.5h205q-47 216 -70 303zM335 900q-28 -4 -49 -4q-103 0 -103 72q0 26 15 71q28 4 49 4q103 0 103 -72q0 -26 -15 -71zM545 900q-28 -4 -49 -4q-103 0 -103 72q0 26 15 71
q28 4 49 4q103 0 103 -72q0 -26 -15 -71z" />
    <glyph glyph-name="Aring" unicode="&#xc5;" horiz-adv-x="645" 
d="M488 2.5q-17 18.5 -29 56t-47 201.5q-23 -20 -75 -22l-171 -6q-61 -149 -90 -265q-96 34 -96 77q0 19 58 142l131.5 279.5t99.5 227.5l18 49q-8 14 -39 51q36 12 62.5 12t44 -4t31 -13.5t24 -19.5t19.5 -29.5t15 -35t13.5 -43.5t12 -48.5l12 -57t15.5 -70.5t28 -129.5
t31.5 -143t33 -106.5t45.5 -93q-58 -28 -94 -28t-53 18.5zM333 609l-61.5 -136.5t-73.5 -166.5h205q-47 216 -70 303zM405 932q10 40 10 45q0 33 -39 33q-19 0 -36 -5q-10 -40 -10 -45q0 -33 39 -33q19 0 36 5zM470 863q-60 -17 -110 -17q-113 0 -113 97q0 47 28 131
q60 17 110 17q113 0 113 -97q0 -47 -28 -131z" />
    <glyph glyph-name="AE" unicode="&#xc6;" horiz-adv-x="941" 
d="M722 334l-96 1q-40 0 -67 -1q-15 -133 -16 -228q235 0 349 38q-9 -74 -45 -115t-90 -41q-16 0 -97 8.5t-156.5 8.5t-151.5 -17q11 47 48 77v4q0 57 30 260q-122 -9 -170 -30q-2 22 -2 33q0 55 34.5 74t99.5 19h51q21 156 24 260q-35 5 -55 10q-25 -61 -97 -197
q-191 -363 -244 -531q-96 34 -96 77q0 20 64 140l150 275.5t117 221.5l52 109q113 -15 277.5 -15t290.5 24q-12 -83 -76 -111q-53 -22 -127.5 -22t-122.5 4q-1 -27 -31 -248h84q95 0 135 33q2 -20 2 -30q0 -91 -68 -91z" />
    <glyph glyph-name="Ccedilla" unicode="&#xc7;" horiz-adv-x="687" 
d="M584 205q37 -8 37 -37q-38 -69 -93 -112t-104 -57t-101 -14q-118 0 -198 90t-80 262q0 192 99 327q49 65 125.5 103.5t177 38.5t153 -53.5t52.5 -126t-40 -118t-104 -45.5q-22 0 -51 8q21 26 37 74t16 91t-20 70t-63 27q-66 0 -119 -61t-79 -150t-26 -184q0 -128 50 -194
t128 -66q49 0 102 33t101 94zM250 -40q68 -4 100 -34.5t32 -82.5t-37.5 -100t-100.5 -66q-54 20 -54 85q48 9 75.5 34.5t27.5 57.5q0 48 -59 69q1 19 16 37z" />
    <glyph glyph-name="Egrave" unicode="&#xc8;" horiz-adv-x="631" 
d="M412 334l-96 1q-44 0 -67 -1q-15 -133 -16 -228q235 0 349 38q-9 -74 -45 -115t-90 -41q-16 0 -89.5 8.5t-155.5 8.5t-160 -17q11 47 48 77v4q0 54 28 246l-43 -16q-2 22 -2 33q0 67 59 85q18 132 24 238q-37 2 -47 17t-10 59q3 45 8 59q112 -15 247.5 -15t261.5 24
q-14 -105 -128 -126q-67 -13 -199 -17q-1 -11 -29 -232q60 -2 83 -2q95 0 135 33q2 -20 2 -30q0 -91 -68 -91zM506 881q-2 -11 -14 -20.5t-28 -12.5q-38 43 -98.5 83.5t-123.5 57.5q3 69 63 107q56 -23 115 -88.5t86 -126.5z" />
    <glyph glyph-name="Eacute" unicode="&#xc9;" horiz-adv-x="631" 
d="M412 334l-96 1q-44 0 -67 -1q-15 -133 -16 -228q235 0 349 38q-9 -74 -45 -115t-90 -41q-16 0 -89.5 8.5t-155.5 8.5t-160 -17q11 47 48 77v4q0 54 28 246l-43 -16q-2 22 -2 33q0 67 59 85q18 132 24 238q-37 2 -47 17t-10 59q3 45 8 59q112 -15 247.5 -15t261.5 24
q-14 -105 -128 -126q-67 -13 -199 -17q-1 -11 -29 -232q60 -2 83 -2q95 0 135 33q2 -20 2 -30q0 -91 -68 -91zM286 881q27 61 86 126.5t115 88.5q60 -38 63 -107q-63 -17 -123.5 -57.5t-98.5 -83.5q-16 3 -28 12.5t-14 20.5z" />
    <glyph glyph-name="Ecircumflex" unicode="&#xca;" horiz-adv-x="631" 
d="M412 334l-96 1q-44 0 -67 -1q-15 -133 -16 -228q235 0 349 38q-9 -74 -45 -115t-90 -41q-16 0 -89.5 8.5t-155.5 8.5t-160 -17q11 47 48 77v4q0 54 28 246l-43 -16q-2 22 -2 33q0 67 59 85q18 132 24 238q-37 2 -47 17t-10 59q3 45 8 59q112 -15 247.5 -15t261.5 24
q-14 -105 -128 -126q-67 -13 -199 -17q-1 -11 -29 -232q60 -2 83 -2q95 0 135 33q2 -20 2 -30q0 -91 -68 -91zM550 877q-37 -11 -76.5 -11t-56.5 21.5t-34 88.5q-52 -80 -134 -127q-50 34 -51 89q82 51 123 92l23 23q6 6 22 25.5t20 23.5q36 0 55 -20t26 -48t28 -74t55 -83z
" />
    <glyph glyph-name="Edieresis" unicode="&#xcb;" horiz-adv-x="631" 
d="M412 334l-96 1q-44 0 -67 -1q-15 -133 -16 -228q235 0 349 38q-9 -74 -45 -115t-90 -41q-16 0 -89.5 8.5t-155.5 8.5t-160 -17q11 47 48 77v4q0 54 28 246l-43 -16q-2 22 -2 33q0 67 59 85q18 132 24 238q-37 2 -47 17t-10 59q3 45 8 59q112 -15 247.5 -15t261.5 24
q-14 -105 -128 -126q-67 -13 -199 -17q-1 -11 -29 -232q60 -2 83 -2q95 0 135 33q2 -20 2 -30q0 -91 -68 -91zM347 900q-28 -4 -49 -4q-103 0 -103 72q0 26 15 71q28 4 49 4q103 0 103 -72q0 -26 -15 -71zM557 900q-28 -4 -49 -4q-103 0 -103 72q0 26 15 71q28 4 49 4
q103 0 103 -72q0 -26 -15 -71z" />
    <glyph glyph-name="Igrave" unicode="&#xcc;" horiz-adv-x="344" 
d="M272.5 723q1.5 -14 1.5 -51t-33 -263t-33 -316.5t14 -123.5q-85 22 -116 58.5t-31 101.5q0 38 21 193q37 257 37 398q0 30 -4 82q76 -4 111 -24q15 -8 23 -24.5t9.5 -30.5zM340 881q-2 -11 -14 -20.5t-28 -12.5q-38 43 -98.5 83.5t-123.5 57.5q3 69 63 107
q56 -23 115 -88.5t86 -126.5z" />
    <glyph glyph-name="Iacute" unicode="&#xcd;" horiz-adv-x="344" 
d="M272.5 723q1.5 -14 1.5 -51t-33 -263t-33 -316.5t14 -123.5q-85 22 -116 58.5t-31 101.5q0 38 21 193q37 257 37 398q0 30 -4 82q76 -4 111 -24q15 -8 23 -24.5t9.5 -30.5zM89 881q27 61 86 126.5t115 88.5q60 -38 63 -107q-63 -17 -123.5 -57.5t-98.5 -83.5
q-16 3 -28 12.5t-14 20.5z" />
    <glyph glyph-name="Icircumflex" unicode="&#xce;" horiz-adv-x="344" 
d="M272.5 723q1.5 -14 1.5 -51t-33 -263t-33 -316.5t14 -123.5q-85 22 -116 58.5t-31 101.5q0 38 21 193q37 257 37 398q0 30 -4 82q76 -4 111 -24q15 -8 23 -24.5t9.5 -30.5zM384 877q-37 -11 -76.5 -11t-56.5 21.5t-34 88.5q-52 -80 -134 -127q-50 34 -51 89q82 51 123 92
l23 23q6 6 22 25.5t20 23.5q36 0 55 -20t26 -48t28 -74t55 -83z" />
    <glyph glyph-name="Idieresis" unicode="&#xcf;" horiz-adv-x="344" 
d="M272.5 723q1.5 -14 1.5 -51t-33 -263t-33 -316.5t14 -123.5q-85 22 -116 58.5t-31 101.5q0 38 21 193q37 257 37 398q0 30 -4 82q76 -4 111 -24q15 -8 23 -24.5t9.5 -30.5zM187 900q-28 -4 -49 -4q-103 0 -103 72q0 26 15 71q28 4 49 4q103 0 103 -72q0 -26 -15 -71z
M397 900q-28 -4 -49 -4q-103 0 -103 72q0 26 15 71q28 4 49 4q103 0 103 -72q0 -26 -15 -71z" />
    <glyph glyph-name="Eth" unicode="&#xd0;" horiz-adv-x="760" 
d="M267.5 457q72.5 7 123.5 7t70 -27.5t19 -81.5q0 -4 -0.5 -11.5t-0.5 -11.5q-70 11 -123.5 11t-126 -7t-123.5 -7t-70 27.5t-19 81.5q0 4 0.5 11.5t0.5 11.5q70 -11 123.5 -11t126 7zM261 759q89 43 167 43q138 0 217 -109t79 -274q0 -137 -61 -244q-68 -119 -191 -165
q-67 -25 -141 -25t-136.5 17t-90.5 34l-29 17q1 8 22 149q44 294 44 533q0 79 -14 112q107 -28 134 -88zM221 75q39 -15 87 -15q87 0 150.5 56t92 137t28.5 172q0 128 -55 209t-148 81q-58 0 -102 -18q0 -61 -26.5 -307t-26.5 -315z" />
    <glyph glyph-name="Ntilde" unicode="&#xd1;" horiz-adv-x="821" 
d="M506 38q-18 26 -120.5 222.5l-145.5 273.5q-4 -34 -18 -130q-27 -194 -27 -326q0 -31 4 -83q-70 0 -94.5 16.5t-24.5 46.5q0 9 33 268.5t34 363.5l-9 13q-25 37 -66 62q-10 6 -12 8q48 29 92 29q88 0 129 -57.5t153 -283.5l36.5 -75.5l39.5 -81.5q35 -75 75 -141
q3 39 27.5 239.5t24.5 317.5q0 31 -4 81q70 0 94 -16t24 -45q0 -11 -33 -279t-33 -371q0 -37 2 -54q8 -7 26 -17q-62 -40 -115 -40t-92 59zM610.5 924q-28.5 -30 -61.5 -30t-80.5 14t-66.5 14q-48 0 -75 -43q-23 4 -27 24q8 69 36.5 99t61.5 30t80.5 -14t66.5 -14
q48 0 75 43q23 -4 27 -24q-8 -69 -36.5 -99z" />
    <glyph glyph-name="Ograve" unicode="&#xd2;" horiz-adv-x="802" 
d="M562.5 653q-38.5 63 -105 63t-126 -58.5t-93 -147.5t-33.5 -180q0 -125 41.5 -205t125.5 -80q70 0 123.5 61.5t79.5 152.5t26 191q0 140 -38.5 203zM506.5 5q-67.5 -30 -147.5 -30t-140.5 36t-96.5 96q-72 120 -72 280t79.5 285t212.5 158q8 -2 15.5 -8t8.5 -13
q-129 -94 -156 -256q42 118 126.5 184.5t181.5 66.5t165.5 -83.5t68.5 -241.5q0 -155 -58 -279q-30 -66 -75 -115.5t-112.5 -79.5zM591 881q-2 -11 -14 -20.5t-28 -12.5q-38 43 -98.5 83.5t-123.5 57.5q3 69 63 107q56 -23 115 -88.5t86 -126.5z" />
    <glyph glyph-name="Oacute" unicode="&#xd3;" horiz-adv-x="802" 
d="M562.5 653q-38.5 63 -105 63t-126 -58.5t-93 -147.5t-33.5 -180q0 -125 41.5 -205t125.5 -80q70 0 123.5 61.5t79.5 152.5t26 191q0 140 -38.5 203zM506.5 5q-67.5 -30 -147.5 -30t-140.5 36t-96.5 96q-72 120 -72 280t79.5 285t212.5 158q8 -2 15.5 -8t8.5 -13
q-129 -94 -156 -256q42 118 126.5 184.5t181.5 66.5t165.5 -83.5t68.5 -241.5q0 -155 -58 -279q-30 -66 -75 -115.5t-112.5 -79.5zM381 881q27 61 86 126.5t115 88.5q60 -38 63 -107q-63 -17 -123.5 -57.5t-98.5 -83.5q-16 3 -28 12.5t-14 20.5z" />
    <glyph glyph-name="Ocircumflex" unicode="&#xd4;" horiz-adv-x="802" 
d="M562.5 653q-38.5 63 -105 63t-126 -58.5t-93 -147.5t-33.5 -180q0 -125 41.5 -205t125.5 -80q70 0 123.5 61.5t79.5 152.5t26 191q0 140 -38.5 203zM506.5 5q-67.5 -30 -147.5 -30t-140.5 36t-96.5 96q-72 120 -72 280t79.5 285t212.5 158q8 -2 15.5 -8t8.5 -13
q-129 -94 -156 -256q42 118 126.5 184.5t181.5 66.5t165.5 -83.5t68.5 -241.5q0 -155 -58 -279q-30 -66 -75 -115.5t-112.5 -79.5zM696 877q-37 -11 -76.5 -11t-56.5 21.5t-34 88.5q-52 -80 -134 -127q-50 34 -51 89q82 51 123 92l23 23q6 6 22 25.5t20 23.5q36 0 55 -20
t26 -48t28 -74t55 -83z" />
    <glyph glyph-name="Otilde" unicode="&#xd5;" horiz-adv-x="802" 
d="M562.5 653q-38.5 63 -105 63t-126 -58.5t-93 -147.5t-33.5 -180q0 -125 41.5 -205t125.5 -80q70 0 123.5 61.5t79.5 152.5t26 191q0 140 -38.5 203zM506.5 5q-67.5 -30 -147.5 -30t-140.5 36t-96.5 96q-72 120 -72 280t79.5 285t212.5 158q8 -2 15.5 -8t8.5 -13
q-129 -94 -156 -256q42 118 126.5 184.5t181.5 66.5t165.5 -83.5t68.5 -241.5q0 -155 -58 -279q-30 -66 -75 -115.5t-112.5 -79.5zM655.5 924q-28.5 -30 -61.5 -30t-80.5 14t-66.5 14q-48 0 -75 -43q-23 4 -27 24q8 69 36.5 99t61.5 30t80.5 -14t66.5 -14q48 0 75 43
q23 -4 27 -24q-8 -69 -36.5 -99z" />
    <glyph glyph-name="Odieresis" unicode="&#xd6;" horiz-adv-x="802" 
d="M562.5 653q-38.5 63 -105 63t-126 -58.5t-93 -147.5t-33.5 -180q0 -125 41.5 -205t125.5 -80q70 0 123.5 61.5t79.5 152.5t26 191q0 140 -38.5 203zM506.5 5q-67.5 -30 -147.5 -30t-140.5 36t-96.5 96q-72 120 -72 280t79.5 285t212.5 158q8 -2 15.5 -8t8.5 -13
q-129 -94 -156 -256q42 118 126.5 184.5t181.5 66.5t165.5 -83.5t68.5 -241.5q0 -155 -58 -279q-30 -66 -75 -115.5t-112.5 -79.5zM479 900q-28 -4 -49 -4q-103 0 -103 72q0 26 15 71q28 4 49 4q103 0 103 -72q0 -26 -15 -71zM689 900q-28 -4 -49 -4q-103 0 -103 72
q0 26 15 71q28 4 49 4q103 0 103 -72q0 -26 -15 -71z" />
    <glyph glyph-name="multiply" unicode="&#xd7;" 
d="M502 109q-55 57 -184 160l-8 -11q-41 -51 -61 -74t-48 -44t-51 -21t-40.5 9.5t-45.5 33.5q53 50 159 183l-11 9q-51 41 -74 61t-44 48t-21 51t9.5 40.5t33.5 45.5q54 -57 183 -160l10 12q42 53 63 77q54 62 98 62q22 0 39.5 -9.5t45.5 -33.5q-54 -51 -105 -114.5
l-56 -69.5l12 -9q53 -42 77 -63q62 -54 62 -98q0 -22 -9.5 -39.5t-33.5 -45.5z" />
    <glyph glyph-name="Oslash" unicode="&#xd8;" horiz-adv-x="802" 
d="M562.5 653q-38.5 63 -105 63t-126 -58.5t-93 -147.5t-33.5 -180q0 -125 41.5 -205t125.5 -80q70 0 123.5 61.5t79.5 152.5t26 191q0 140 -38.5 203zM506.5 5q-67.5 -30 -147.5 -30t-140.5 36t-96.5 96q-72 120 -72 280t79.5 285t212.5 158q8 -2 15.5 -8t8.5 -13
q-129 -94 -156 -256q42 118 126.5 184.5t181.5 66.5t165.5 -83.5t68.5 -241.5q0 -155 -58 -279q-30 -66 -75 -115.5t-112.5 -79.5zM538 930q8 -3 24.5 -14.5t27.5 -21.5q27 -28 27 -66.5t-75 -224.5l-157.5 -403.5t-96.5 -319.5q-11 0 -35 8t-39 17t-27.5 28t-12.5 43
q0 45 83 237.5l174.5 410t106.5 306.5z" />
    <glyph glyph-name="Ugrave" unicode="&#xd9;" horiz-adv-x="755" 
d="M683.5 723q1.5 -14 1.5 -51t-33 -263t-33 -316.5t14 -123.5q-85 22 -116 58.5t-31 101.5q0 20 1 31q-91 -180 -249 -180q-84 0 -126 57.5t-42 182.5q0 71 22.5 256t22.5 240.5t-11 85.5q83 -21 114.5 -55.5t31.5 -97t-20 -199t-20 -220t24 -118.5t67 -35q51 0 99 45
q98 93 128 357v2q16 139 16 204t-4 117q76 -4 111 -24q15 -8 23 -24.5t9.5 -30.5zM509 881q-2 -11 -14 -20.5t-28 -12.5q-38 43 -98.5 83.5t-123.5 57.5q3 69 63 107q56 -23 115 -88.5t86 -126.5z" />
    <glyph glyph-name="Uacute" unicode="&#xda;" horiz-adv-x="755" 
d="M683.5 723q1.5 -14 1.5 -51t-33 -263t-33 -316.5t14 -123.5q-85 22 -116 58.5t-31 101.5q0 20 1 31q-91 -180 -249 -180q-84 0 -126 57.5t-42 182.5q0 71 22.5 256t22.5 240.5t-11 85.5q83 -21 114.5 -55.5t31.5 -97t-20 -199t-20 -220t24 -118.5t67 -35q51 0 99 45
q98 93 128 357v2q16 139 16 204t-4 117q76 -4 111 -24q15 -8 23 -24.5t9.5 -30.5zM297 881q27 61 86 126.5t115 88.5q60 -38 63 -107q-63 -17 -123.5 -57.5t-98.5 -83.5q-16 3 -28 12.5t-14 20.5z" />
    <glyph glyph-name="Ucircumflex" unicode="&#xdb;" horiz-adv-x="755" 
d="M683.5 723q1.5 -14 1.5 -51t-33 -263t-33 -316.5t14 -123.5q-85 22 -116 58.5t-31 101.5q0 20 1 31q-91 -180 -249 -180q-84 0 -126 57.5t-42 182.5q0 71 22.5 256t22.5 240.5t-11 85.5q83 -21 114.5 -55.5t31.5 -97t-20 -199t-20 -220t24 -118.5t67 -35q51 0 99 45
q98 93 128 357v2q16 139 16 204t-4 117q76 -4 111 -24q15 -8 23 -24.5t9.5 -30.5zM592 877q-37 -11 -76.5 -11t-56.5 21.5t-34 88.5q-52 -80 -134 -127q-50 34 -51 89q82 51 123 92l23 23q6 6 22 25.5t20 23.5q36 0 55 -20t26 -48t28 -74t55 -83z" />
    <glyph glyph-name="Udieresis" unicode="&#xdc;" horiz-adv-x="755" 
d="M683.5 723q1.5 -14 1.5 -51t-33 -263t-33 -316.5t14 -123.5q-85 22 -116 58.5t-31 101.5q0 20 1 31q-91 -180 -249 -180q-84 0 -126 57.5t-42 182.5q0 71 22.5 256t22.5 240.5t-11 85.5q83 -21 114.5 -55.5t31.5 -97t-20 -199t-20 -220t24 -118.5t67 -35q51 0 99 45
q98 93 128 357v2q16 139 16 204t-4 117q76 -4 111 -24q15 -8 23 -24.5t9.5 -30.5zM390 900q-28 -4 -49 -4q-103 0 -103 72q0 26 15 71q28 4 49 4q103 0 103 -72q0 -26 -15 -71zM600 900q-28 -4 -49 -4q-103 0 -103 72q0 26 15 71q28 4 49 4q103 0 103 -72q0 -26 -15 -71z
" />
    <glyph glyph-name="Yacute" unicode="&#xdd;" horiz-adv-x="565" 
d="M281 404l7 -39q92 143 149.5 270t67.5 198q75 -42 75 -111q0 -74 -253 -439q-16 -135 -16 -208t14 -106q-85 22 -116 58.5t-31 92t15 158.5q-107 382 -185 499q41 26 86 26q24 0 40.5 -4.5t32.5 -20.5t27.5 -41t25.5 -73q24 -76 61 -260zM248 881q27 61 86 126.5
t115 88.5q60 -38 63 -107q-63 -17 -123.5 -57.5t-98.5 -83.5q-16 3 -28 12.5t-14 20.5z" />
    <glyph glyph-name="Thorn" unicode="&#xde;" horiz-adv-x="621" 
d="M105 3q-25 20 -25 67t33.5 284.5t33.5 339t-14 132.5q70 -5 108.5 -42.5t38.5 -100.5q0 -26 -5 -73q72 33 146 33q99 0 152.5 -57.5t53.5 -141.5q0 -104 -77 -188q-36 -40 -94.5 -65t-129.5 -25q-30 0 -57 4l-3 42q106 0 170 65t64 148q0 58 -35.5 96t-102.5 39
q-45 0 -96 -22q-1 -8 -7.5 -53.5t-8.5 -63t-7.5 -60t-8 -69.5t-5.5 -66q-6 -76 -6 -141t6 -100q-32 -2 -42 -2q-57 0 -82 20z" />
    <glyph glyph-name="germandbls" unicode="&#xdf;" horiz-adv-x="713" 
d="M488 460l1 -5q96 -6 150 -70t54 -150q0 -106 -73 -187t-196 -81q-77 0 -116 37.5t-39 89t31.5 89.5t80.5 38q24 0 48 -10q-15 -17 -28 -53.5t-13 -67.5q0 -61 51 -61q44 0 74 59t30 134.5t-38.5 129.5t-114.5 54l-18 45q68 42 107.5 103.5t39.5 117.5t-22 85t-62 29
q-57 0 -100.5 -67t-61.5 -212q-3 -27 -12.5 -101.5t-14.5 -120.5q-16 -130 -16 -205.5t2.5 -102t13.5 -90.5q-72 23 -106 74.5t-34 121.5q0 139 40 379q-55 -10 -109 -34q-2 22 -2 33q0 54 33.5 73t95.5 20q21 86 55 148.5t74 95.5q75 62 164 62t137 -47.5t48 -115.5
t-41.5 -132.5t-112.5 -104.5z" />
    <glyph glyph-name="agrave" unicode="&#xe0;" horiz-adv-x="635" 
d="M503 652q-2 -11 -14 -20.5t-28 -12.5q-38 43 -98.5 83.5t-123.5 57.5q3 69 63 107q56 -23 115 -88.5t86 -126.5zM186 189q0 -47 17.5 -76.5t49.5 -29.5q47 0 89.5 55t68 141t25.5 163.5t-6 125.5q30 2 42 2q51 0 77 -19t26 -68q0 -19 -24 -154.5t-24 -217t31 -144.5
q-75 13 -110 55.5t-35 122.5q0 14 4 54q-27 -95 -96 -153t-135.5 -58t-107 49.5t-40.5 140.5t32.5 176.5t97.5 145t145 59.5q46 0 94 -22q-101 -36 -161 -141.5t-60 -206.5z" />
    <glyph glyph-name="aacute" unicode="&#xe1;" horiz-adv-x="635" 
d="M280 652q27 61 86 126.5t115 88.5q60 -38 63 -107q-63 -17 -123.5 -57.5t-98.5 -83.5q-16 3 -28 12.5t-14 20.5zM186 189q0 -47 17.5 -76.5t49.5 -29.5q47 0 89.5 55t68 141t25.5 163.5t-6 125.5q30 2 42 2q51 0 77 -19t26 -68q0 -19 -24 -154.5t-24 -217t31 -144.5
q-75 13 -110 55.5t-35 122.5q0 14 4 54q-27 -95 -96 -153t-135.5 -58t-107 49.5t-40.5 140.5t32.5 176.5t97.5 145t145 59.5q46 0 94 -22q-101 -36 -161 -141.5t-60 -206.5z" />
    <glyph glyph-name="acircumflex" unicode="&#xe2;" horiz-adv-x="635" 
d="M582 648q-37 -11 -76.5 -11t-56.5 21.5t-34 88.5q-52 -80 -134 -127q-50 34 -51 89q82 51 123 92l23 23q6 6 22 25.5t20 23.5q36 0 55 -20t26 -48t28 -74t55 -83zM186 189q0 -47 17.5 -76.5t49.5 -29.5q47 0 89.5 55t68 141t25.5 163.5t-6 125.5q30 2 42 2q51 0 77 -19
t26 -68q0 -19 -24 -154.5t-24 -217t31 -144.5q-75 13 -110 55.5t-35 122.5q0 14 4 54q-27 -95 -96 -153t-135.5 -58t-107 49.5t-40.5 140.5t32.5 176.5t97.5 145t145 59.5q46 0 94 -22q-101 -36 -161 -141.5t-60 -206.5z" />
    <glyph glyph-name="atilde" unicode="&#xe3;" horiz-adv-x="635" 
d="M549.5 695q-28.5 -30 -61.5 -30t-80.5 14t-66.5 14q-48 0 -75 -43q-23 4 -27 24q8 69 36.5 99t61.5 30t80.5 -14t66.5 -14q48 0 75 43q23 -4 27 -24q-8 -69 -36.5 -99zM186 189q0 -47 17.5 -76.5t49.5 -29.5q47 0 89.5 55t68 141t25.5 163.5t-6 125.5q30 2 42 2
q51 0 77 -19t26 -68q0 -19 -24 -154.5t-24 -217t31 -144.5q-75 13 -110 55.5t-35 122.5q0 14 4 54q-27 -95 -96 -153t-135.5 -58t-107 49.5t-40.5 140.5t32.5 176.5t97.5 145t145 59.5q46 0 94 -22q-101 -36 -161 -141.5t-60 -206.5z" />
    <glyph glyph-name="adieresis" unicode="&#xe4;" horiz-adv-x="646" 
d="M388 671q-28 -4 -49 -4q-103 0 -103 72q0 26 15 71q28 4 49 4q103 0 103 -72q0 -26 -15 -71zM598 671q-28 -4 -49 -4q-103 0 -103 72q0 26 15 71q28 4 49 4q103 0 103 -72q0 -26 -15 -71zM186 189q0 -47 17.5 -76.5t49.5 -29.5q47 0 89.5 55t68 141t25.5 163.5t-6 125.5
q30 2 42 2q51 0 77 -19t26 -68q0 -19 -24 -154.5t-24 -217t31 -144.5q-75 13 -110 55.5t-35 122.5q0 14 4 54q-27 -95 -96 -153t-135.5 -58t-107 49.5t-40.5 140.5t32.5 176.5t97.5 145t145 59.5q46 0 94 -22q-101 -36 -161 -141.5t-60 -206.5z" />
    <glyph glyph-name="aring" unicode="&#xe5;" horiz-adv-x="635" 
d="M439 703q10 40 10 45q0 33 -39 33q-19 0 -36 -5q-10 -40 -10 -45q0 -33 39 -33q19 0 36 5zM504 634q-60 -17 -110 -17q-113 0 -113 97q0 47 28 131q60 17 110 17q113 0 113 -97q0 -47 -28 -131zM186 189q0 -47 17.5 -76.5t49.5 -29.5q47 0 89.5 55t68 141t25.5 163.5
t-6 125.5q30 2 42 2q51 0 77 -19t26 -68q0 -19 -24 -154.5t-24 -217t31 -144.5q-75 13 -110 55.5t-35 122.5q0 14 4 54q-27 -95 -96 -153t-135.5 -58t-107 49.5t-40.5 140.5t32.5 176.5t97.5 145t145 59.5q46 0 94 -22q-101 -36 -161 -141.5t-60 -206.5z" />
    <glyph glyph-name="ae" unicode="&#xe6;" horiz-adv-x="906" 
d="M405 163q-33 -80 -97 -127.5t-126.5 -47.5t-103 49.5t-40.5 140.5t32.5 176.5t97.5 145t145 59.5q46 0 94 -22q-101 -36 -161 -141.5t-60 -206.5q0 -47 17.5 -76.5t49.5 -29.5q47 0 89.5 55t68 141t25.5 163.5t-6 125.5q30 2 50.5 2t24.5 -15t4 -72q61 94 194 94
q78 0 119 -40t41 -105q0 -94 -65.5 -140t-160.5 -46q-48 0 -94 11q-1 -10 -1 -31q0 -83 31 -125t74 -42t82 26t68 72q36 -8 36 -37q-88 -135 -227 -135q-80 0 -133 44.5t-68 133.5zM679 515q-51 0 -86 -63t-46 -153h15q87 0 128.5 45t41.5 108q0 26 -13.5 44.5t-39.5 18.5z
" />
    <glyph glyph-name="ccedilla" unicode="&#xe7;" horiz-adv-x="545" 
d="M193 226q0 -167 98 -167q38 0 77 26t68 72q36 -8 36 -37q-42 -73 -103 -104t-122 -31q-82 0 -139.5 60.5t-57.5 175.5q0 147 81 251.5t219 104.5q77 0 116 -37.5t39 -89t-31.5 -89.5t-80.5 -38q-24 0 -48 10q15 17 28 53.5t13 67.5q0 61 -53 61q-62 0 -101 -91t-39 -198z
M177 -40q68 -4 100 -34.5t32 -82.5t-37.5 -100t-100.5 -66q-54 20 -54 85q48 9 75.5 34.5t27.5 57.5q0 48 -59 69q1 19 16 37z" />
    <glyph glyph-name="egrave" unicode="&#xe8;" horiz-adv-x="560" 
d="M291 246q-48 0 -94 11q-1 -10 -1 -31q0 -83 31 -125t74 -42t82 26t68 72q36 -8 36 -37q-88 -135 -227 -135q-84 0 -147 64.5t-63 179.5q0 86 33 163.5t105 131t159.5 53.5t128.5 -40t41 -105q0 -94 -65.5 -140t-160.5 -46zM333 515q-51 0 -86 -63t-46 -153h15
q87 0 128.5 45t41.5 108q0 26 -13.5 44.5t-39.5 18.5zM464 652q-2 -11 -14 -20.5t-28 -12.5q-38 43 -98.5 83.5t-123.5 57.5q3 69 63 107q56 -23 115 -88.5t86 -126.5z" />
    <glyph glyph-name="eacute" unicode="&#xe9;" horiz-adv-x="560" 
d="M291 246q-48 0 -94 11q-1 -10 -1 -31q0 -83 31 -125t74 -42t82 26t68 72q36 -8 36 -37q-88 -135 -227 -135q-84 0 -147 64.5t-63 179.5q0 86 33 163.5t105 131t159.5 53.5t128.5 -40t41 -105q0 -94 -65.5 -140t-160.5 -46zM333 515q-51 0 -86 -63t-46 -153h15
q87 0 128.5 45t41.5 108q0 26 -13.5 44.5t-39.5 18.5zM239 652q27 61 86 126.5t115 88.5q60 -38 63 -107q-63 -17 -123.5 -57.5t-98.5 -83.5q-16 3 -28 12.5t-14 20.5z" />
    <glyph glyph-name="ecircumflex" unicode="&#xea;" horiz-adv-x="560" 
d="M291 246q-48 0 -94 11q-1 -10 -1 -31q0 -83 31 -125t74 -42t82 26t68 72q36 -8 36 -37q-88 -135 -227 -135q-84 0 -147 64.5t-63 179.5q0 86 33 163.5t105 131t159.5 53.5t128.5 -40t41 -105q0 -94 -65.5 -140t-160.5 -46zM333 515q-51 0 -86 -63t-46 -153h15
q87 0 128.5 45t41.5 108q0 26 -13.5 44.5t-39.5 18.5zM524 648q-37 -11 -76.5 -11t-56.5 21.5t-34 88.5q-52 -80 -134 -127q-50 34 -51 89q82 51 123 92l23 23q6 6 22 25.5t20 23.5q36 0 55 -20t26 -48t28 -74t55 -83z" />
    <glyph glyph-name="edieresis" unicode="&#xeb;" horiz-adv-x="560" 
d="M291 246q-48 0 -94 11q-1 -10 -1 -31q0 -83 31 -125t74 -42t82 26t68 72q36 -8 36 -37q-88 -135 -227 -135q-84 0 -147 64.5t-63 179.5q0 86 33 163.5t105 131t159.5 53.5t128.5 -40t41 -105q0 -94 -65.5 -140t-160.5 -46zM333 515q-51 0 -86 -63t-46 -153h15
q87 0 128.5 45t41.5 108q0 26 -13.5 44.5t-39.5 18.5zM295 671q-28 -4 -49 -4q-103 0 -103 72q0 26 15 71q28 4 49 4q103 0 103 -72q0 -26 -15 -71zM505 671q-28 -4 -49 -4q-103 0 -103 72q0 26 15 71q28 4 49 4q103 0 103 -72q0 -26 -15 -71z" />
    <glyph glyph-name="igrave" unicode="&#xec;" horiz-adv-x="321" 
d="M232.5 339.5q-24.5 -142.5 -25 -235t11.5 -119.5q-78 20 -105 60.5t-27 118.5q0 42 16 152t16 171t-6 94q22 2 41 2q58 0 80.5 -19.5t22.5 -66.5q0 -15 -24.5 -157.5zM329 652q-2 -11 -14 -20.5t-28 -12.5q-38 43 -98.5 83.5t-123.5 57.5q3 69 63 107q56 -23 115 -88.5
t86 -126.5z" />
    <glyph glyph-name="iacute" unicode="&#xed;" horiz-adv-x="321" 
d="M232.5 339.5q-24.5 -142.5 -25 -235t11.5 -119.5q-78 20 -105 60.5t-27 118.5q0 42 16 152t16 171t-6 94q22 2 41 2q58 0 80.5 -19.5t22.5 -66.5q0 -15 -24.5 -157.5zM74 652q27 61 86 126.5t115 88.5q60 -38 63 -107q-63 -17 -123.5 -57.5t-98.5 -83.5q-16 3 -28 12.5
t-14 20.5z" />
    <glyph glyph-name="icircumflex" unicode="&#xee;" horiz-adv-x="321" 
d="M232.5 339.5q-24.5 -142.5 -25 -235t11.5 -119.5q-78 20 -105 60.5t-27 118.5q0 42 16 152t16 171t-6 94q22 2 41 2q58 0 80.5 -19.5t22.5 -66.5q0 -15 -24.5 -157.5zM376 648q-37 -11 -76.5 -11t-56.5 21.5t-34 88.5q-52 -80 -134 -127q-50 34 -51 89q82 51 123 92
l23 23q6 6 22 25.5t20 23.5q36 0 55 -20t26 -48t28 -74t55 -83z" />
    <glyph glyph-name="idieresis" unicode="&#xef;" horiz-adv-x="321" 
d="M232.5 339.5q-24.5 -142.5 -25 -235t11.5 -119.5q-78 20 -105 60.5t-27 118.5q0 42 16 152t16 171t-6 94q22 2 41 2q58 0 80.5 -19.5t22.5 -66.5q0 -15 -24.5 -157.5zM153 671q-28 -4 -49 -4q-103 0 -103 72q0 26 15 71q28 4 49 4q103 0 103 -72q0 -26 -15 -71zM363 671
q-28 -4 -49 -4q-103 0 -103 72q0 26 15 71q28 4 49 4q103 0 103 -72q0 -26 -15 -71z" />
    <glyph glyph-name="eth" unicode="&#xf0;" horiz-adv-x="617" 
d="M158 784q0 46 50.5 80.5t113.5 34.5q135 0 203 -134q54 28 84.5 28t45 -16.5t28.5 -49.5q-55 -19 -126 -50q21 -82 21 -180.5t-19 -187t-56 -162t-98.5 -118t-143.5 -44.5t-146.5 67.5t-64.5 200t78 210.5t187 78q76 0 143 -40q-2 67 -10 119q-44 -21 -72 -21t-43.5 17
t-27.5 50q68 24 122 48q-35 111 -95 111q-41 0 -64.5 -30t-23.5 -86q-36 0 -61 22.5t-25 52.5zM217 104.5q23 -47.5 66.5 -47.5t75.5 32t52 87q40 108 46 262q-49 36 -97 36q-70 0 -118 -68.5t-48 -177.5q0 -76 23 -123.5z" />
    <glyph glyph-name="ntilde" unicode="&#xf1;" horiz-adv-x="626" 
d="M532.5 540.5q25.5 -36.5 25.5 -99t-19.5 -175.5t-19.5 -164.5t13 -75t44 -40.5q-13 -1 -37 -1q-84 0 -119.5 26t-35.5 91q0 37 20 144.5t20 160.5q0 66 -40 66q-23 0 -52 -27t-56 -73.5t-45 -119.5t-18 -145.5t6 -107.5q-32 -2 -42 -2q-57 0 -82 20t-25 66q0 20 21 154
t21 213.5t-17 146.5q73 -23 102 -65.5t29 -97t-12 -126.5q33 112 104 190t130 78t84.5 -36.5zM511.5 695q-28.5 -30 -61.5 -30t-80.5 14t-66.5 14q-48 0 -75 -43q-23 4 -27 24q8 69 36.5 99t61.5 30t80.5 -14t66.5 -14q48 0 75 43q23 -4 27 -24q-8 -69 -36.5 -99z" />
    <glyph glyph-name="ograve" unicode="&#xf2;" horiz-adv-x="617" 
d="M361 501q-65 0 -116 -87.5t-51 -174.5q0 -182 94 -182q67 0 109 87.5t42 196.5q0 160 -78 160zM276 591q11 0 20.5 -6.5t9.5 -13.5q-101 -70 -121 -195q21 56 51.5 97t63.5 62q63 39 123 39t102 -59t42 -158q0 -111 -45 -204q-50 -105 -142 -145q-52 -23 -114 -23
q-87 0 -151.5 67.5t-64.5 194t62 223t164 121.5zM474 652q-2 -11 -14 -20.5t-28 -12.5q-38 43 -98.5 83.5t-123.5 57.5q3 69 63 107q56 -23 115 -88.5t86 -126.5z" />
    <glyph glyph-name="oacute" unicode="&#xf3;" horiz-adv-x="617" 
d="M361 501q-65 0 -116 -87.5t-51 -174.5q0 -182 94 -182q67 0 109 87.5t42 196.5q0 160 -78 160zM276 591q11 0 20.5 -6.5t9.5 -13.5q-101 -70 -121 -195q21 56 51.5 97t63.5 62q63 39 123 39t102 -59t42 -158q0 -111 -45 -204q-50 -105 -142 -145q-52 -23 -114 -23
q-87 0 -151.5 67.5t-64.5 194t62 223t164 121.5zM258 652q27 61 86 126.5t115 88.5q60 -38 63 -107q-63 -17 -123.5 -57.5t-98.5 -83.5q-16 3 -28 12.5t-14 20.5z" />
    <glyph glyph-name="ocircumflex" unicode="&#xf4;" horiz-adv-x="617" 
d="M361 501q-65 0 -116 -87.5t-51 -174.5q0 -182 94 -182q67 0 109 87.5t42 196.5q0 160 -78 160zM276 591q11 0 20.5 -6.5t9.5 -13.5q-101 -70 -121 -195q21 56 51.5 97t63.5 62q63 39 123 39t102 -59t42 -158q0 -111 -45 -204q-50 -105 -142 -145q-52 -23 -114 -23
q-87 0 -151.5 67.5t-64.5 194t62 223t164 121.5zM537 648q-37 -11 -76.5 -11t-56.5 21.5t-34 88.5q-52 -80 -134 -127q-50 34 -51 89q82 51 123 92l23 23q6 6 22 25.5t20 23.5q36 0 55 -20t26 -48t28 -74t55 -83z" />
    <glyph glyph-name="otilde" unicode="&#xf5;" horiz-adv-x="617" 
d="M361 501q-65 0 -116 -87.5t-51 -174.5q0 -182 94 -182q67 0 109 87.5t42 196.5q0 160 -78 160zM276 591q11 0 20.5 -6.5t9.5 -13.5q-101 -70 -121 -195q21 56 51.5 97t63.5 62q63 39 123 39t102 -59t42 -158q0 -111 -45 -204q-50 -105 -142 -145q-52 -23 -114 -23
q-87 0 -151.5 67.5t-64.5 194t62 223t164 121.5zM518.5 695q-28.5 -30 -61.5 -30t-80.5 14t-66.5 14q-48 0 -75 -43q-23 4 -27 24q8 69 36.5 99t61.5 30t80.5 -14t66.5 -14q48 0 75 43q23 -4 27 -24q-8 -69 -36.5 -99z" />
    <glyph glyph-name="odieresis" unicode="&#xf6;" horiz-adv-x="617" 
d="M361 501q-65 0 -116 -87.5t-51 -174.5q0 -182 94 -182q67 0 109 87.5t42 196.5q0 160 -78 160zM276 591q11 0 20.5 -6.5t9.5 -13.5q-101 -70 -121 -195q21 56 51.5 97t63.5 62q63 39 123 39t102 -59t42 -158q0 -111 -45 -204q-50 -105 -142 -145q-52 -23 -114 -23
q-87 0 -151.5 67.5t-64.5 194t62 223t164 121.5zM324 671q-28 -4 -49 -4q-103 0 -103 72q0 26 15 71q28 4 49 4q103 0 103 -72q0 -26 -15 -71zM534 671q-28 -4 -49 -4q-103 0 -103 72q0 26 15 71q28 4 49 4q103 0 103 -72q0 -26 -15 -71z" />
    <glyph glyph-name="divide" unicode="&#xf7;" 
d="M332.5 417q81.5 7 140 7t80.5 -27.5t22 -81.5q0 -4 -0.5 -11.5t-0.5 -11.5q-81 11 -143 11t-143.5 -7t-140 -7t-80.5 27.5t-22 81.5q0 4 0.5 11.5t0.5 11.5q81 -11 143 -11t143.5 7zM367 489q-29 -9 -64 -9q-67 0 -67 56q0 17 16 76q28 9 64 9q67 0 67 -56q0 -17 -16 -76
zM367 100q-29 -9 -64 -9q-67 0 -67 56q0 17 16 76q28 9 64 9q67 0 67 -56q0 -17 -16 -76z" />
    <glyph glyph-name="oslash" unicode="&#xf8;" horiz-adv-x="617" 
d="M361 501q-65 0 -116 -87.5t-51 -174.5q0 -182 94 -182q67 0 109 87.5t42 196.5q0 160 -78 160zM276 591q11 0 20.5 -6.5t9.5 -13.5q-101 -70 -121 -195q21 56 51.5 97t63.5 62q63 39 123 39t102 -59t42 -158q0 -111 -45 -204q-50 -105 -142 -145q-52 -23 -114 -23
q-87 0 -151.5 67.5t-64.5 194t62 223t164 121.5zM425 713q7 -2 20 -11t21 -18q22 -25 22 -54.5t-59.5 -178l-125.5 -322.5t-78 -256q-10 0 -28.5 6t-30.5 14t-22 23t-10 34q0 36 66 190.5l139.5 328t85.5 244.5z" />
    <glyph glyph-name="ugrave" unicode="&#xf9;" horiz-adv-x="606" 
d="M393 577q30 2 42 2q52 0 79 -19t27 -70q0 -16 -19 -140.5t-19 -213.5t19 -157q-75 24 -104 68t-29 109q0 25 11 113q-31 -114 -94.5 -191.5t-119.5 -77.5q-115 0 -115 166q0 55 16.5 153.5t16.5 149.5t-14 103q83 0 120.5 -21.5t37.5 -85.5q0 -34 -21 -135t-21 -152
q0 -74 40 -74q20 0 46 27.5t50 73t40.5 114t16.5 139t-6 119.5zM425 652q-2 -11 -14 -20.5t-28 -12.5q-38 43 -98.5 83.5t-123.5 57.5q3 69 63 107q56 -23 115 -88.5t86 -126.5z" />
    <glyph glyph-name="uacute" unicode="&#xfa;" horiz-adv-x="606" 
d="M393 577q30 2 42 2q52 0 79 -19t27 -70q0 -16 -19 -140.5t-19 -213.5t19 -157q-75 24 -104 68t-29 109q0 25 11 113q-31 -114 -94.5 -191.5t-119.5 -77.5q-115 0 -115 166q0 55 16.5 153.5t16.5 149.5t-14 103q83 0 120.5 -21.5t37.5 -85.5q0 -34 -21 -135t-21 -152
q0 -74 40 -74q20 0 46 27.5t50 73t40.5 114t16.5 139t-6 119.5zM226 652q27 61 86 126.5t115 88.5q60 -38 63 -107q-63 -17 -123.5 -57.5t-98.5 -83.5q-16 3 -28 12.5t-14 20.5z" />
    <glyph glyph-name="ucircumflex" unicode="&#xfb;" horiz-adv-x="606" 
d="M393 577q30 2 42 2q52 0 79 -19t27 -70q0 -16 -19 -140.5t-19 -213.5t19 -157q-75 24 -104 68t-29 109q0 25 11 113q-31 -114 -94.5 -191.5t-119.5 -77.5q-115 0 -115 166q0 55 16.5 153.5t16.5 149.5t-14 103q83 0 120.5 -21.5t37.5 -85.5q0 -34 -21 -135t-21 -152
q0 -74 40 -74q20 0 46 27.5t50 73t40.5 114t16.5 139t-6 119.5zM517 648q-37 -11 -76.5 -11t-56.5 21.5t-34 88.5q-52 -80 -134 -127q-50 34 -51 89q82 51 123 92l23 23q6 6 22 25.5t20 23.5q36 0 55 -20t26 -48t28 -74t55 -83z" />
    <glyph glyph-name="udieresis" unicode="&#xfc;" horiz-adv-x="606" 
d="M393 577q30 2 42 2q52 0 79 -19t27 -70q0 -16 -19 -140.5t-19 -213.5t19 -157q-75 24 -104 68t-29 109q0 25 11 113q-31 -114 -94.5 -191.5t-119.5 -77.5q-115 0 -115 166q0 55 16.5 153.5t16.5 149.5t-14 103q83 0 120.5 -21.5t37.5 -85.5q0 -34 -21 -135t-21 -152
q0 -74 40 -74q20 0 46 27.5t50 73t40.5 114t16.5 139t-6 119.5zM295 671q-28 -4 -49 -4q-103 0 -103 72q0 26 15 71q28 4 49 4q103 0 103 -72q0 -26 -15 -71zM505 671q-28 -4 -49 -4q-103 0 -103 72q0 26 15 71q28 4 49 4q103 0 103 -72q0 -26 -15 -71z" />
    <glyph glyph-name="yacute" unicode="&#xfd;" horiz-adv-x="516" 
d="M506 508q0 -35 -30 -94.5t-73 -131.5t-86 -153.5t-73 -184t-30 -200.5q0 -45 7 -86q-81 15 -110 44.5t-29 69.5q0 55 80 217q-15 62 -37 194.5t-44.5 230.5t-51.5 146q55 26 88 26t50 -15t28.5 -59.5t16.5 -73.5q14 -96 14 -107t8 -89.5t12 -103.5q178 345 178 461
q82 -42 82 -91zM201 652q27 61 86 126.5t115 88.5q60 -38 63 -107q-63 -17 -123.5 -57.5t-98.5 -83.5q-16 3 -28 12.5t-14 20.5z" />
    <glyph glyph-name="thorn" unicode="&#xfe;" horiz-adv-x="649" 
d="M209 343q51 110 116 160t129 50t104.5 -49.5t40.5 -143.5q0 -150 -82 -255t-197 -105q-41 0 -83 16q98 23 156 127t58 207q0 48 -17.5 78t-49.5 30q-61 0 -108 -74t-72 -202.5t-25 -268t20 -242.5q-82 3 -121.5 26.5t-39.5 89.5q0 28 24 213q72 553 72 809q0 87 -12 117
q75 -20 102.5 -60.5t27.5 -114.5q0 -50 -17.5 -189t-25.5 -219z" />
    <glyph glyph-name="ydieresis" unicode="&#xff;" horiz-adv-x="516" 
d="M506 508q0 -35 -30 -94.5t-73 -131.5t-86 -153.5t-73 -184t-30 -200.5q0 -45 7 -86q-81 15 -110 44.5t-29 69.5q0 55 80 217q-15 62 -37 194.5t-44.5 230.5t-51.5 146q55 26 88 26t50 -15t28.5 -59.5t16.5 -73.5q14 -96 14 -107t8 -89.5t12 -103.5q178 345 178 461
q82 -42 82 -91zM268 671q-28 -4 -49 -4q-103 0 -103 72q0 26 15 71q28 4 49 4q103 0 103 -72q0 -26 -15 -71zM478 671q-28 -4 -49 -4q-103 0 -103 72q0 26 15 71q28 4 49 4q103 0 103 -72q0 -26 -15 -71z" />
    <glyph glyph-name="dotlessi" unicode="&#x131;" horiz-adv-x="321" 
d="M232.5 339.5q-24.5 -142.5 -25 -235t11.5 -119.5q-78 20 -105 60.5t-27 118.5q0 42 16 152t16 171t-6 94q22 2 41 2q58 0 80.5 -19.5t22.5 -66.5q0 -15 -24.5 -157.5z" />
    <glyph glyph-name="Lslash" unicode="&#x141;" horiz-adv-x="547" 
d="M-43 361q78 27 126.5 49.5t106.5 54.5q134 74 177 74q29 0 45.5 -18.5t31.5 -55.5q-78 -27 -126.5 -49.5t-105.5 -54.5q-135 -75 -178 -75q-29 0 -46 19t-31 56zM28 -12q15 58 61 88q-5 20 -5 55.5t21 190.5q37 257 37 398q0 30 -4 82q76 -4 111 -24q15 -8 23 -24.5
t9.5 -30.5t1.5 -51t-30.5 -242.5t-35.5 -323.5q237 0 351 38q-9 -74 -45 -115t-90 -41q-16 0 -89.5 8.5t-155.5 8.5t-160 -17z" />
    <glyph glyph-name="lslash" unicode="&#x142;" horiz-adv-x="299" 
d="M-45 441q120 42 217 95q41 23 70 34.5t57 11.5t44.5 -18.5t31.5 -55.5q-122 -42 -216 -95q-41 -23 -70.5 -35t-57.5 -12t-45 19t-31 56zM70 63.5q-3 18.5 -3 57.5t33.5 307t33.5 368t-12 130q75 -20 102.5 -60.5t27.5 -114.5q0 -44 -29 -286t-29 -390q0 -32 4 -90
q-91 4 -113 40q-12 20 -15 38.5z" />
    <glyph glyph-name="OE" unicode="&#x152;" horiz-adv-x="1047" 
d="M845 -11l-164 11q-76 0 -168.5 -12.5t-163 -12.5t-131 36t-96.5 96q-72 120 -72 280t79.5 285t212.5 158q8 -2 15.5 -8t8.5 -13q-129 -94 -156 -256q42 118 126.5 184.5t176.5 66.5q26 0 132 -12t197 -12t190 19q-6 -80 -73.5 -116.5t-166.5 -36.5q-38 0 -87 7
q0 -1 -29 -230q30 -1 83 -1q95 0 135 33q2 -20 2 -30q0 -91 -68 -91l-96 1q-44 0 -67 -1q-15 -133 -16 -228q235 0 349 38q-8 -90 -47 -122.5t-106 -32.5zM575 691q-49 25 -116.5 25t-127 -58.5t-93 -147.5t-33.5 -180q0 -125 41.5 -205t125.5 -80q39 0 78 13.5t57 32.5
q3 33 33 265t35 335z" />
    <glyph glyph-name="oe" unicode="&#x153;" horiz-adv-x="924" 
d="M276 591q11 0 20.5 -6.5t9.5 -13.5q-101 -70 -121 -195q21 56 51.5 97t63.5 62q63 39 122 39q70 0 112 -75q75 78 187 78q78 0 119 -40t41 -105q0 -94 -65.5 -140t-160.5 -46q-52 0 -94 12q-1 -11 -1 -32q0 -83 31 -125t74 -42t82 26t68 72q36 -8 36 -37
q-88 -135 -227 -135q-98 0 -150 92q-80 -92 -208 -92q-87 0 -151.5 67.5t-64.5 194t62 223t164 121.5zM361 501q-65 0 -116 -87.5t-51 -174.5q0 -182 94 -182q67 0 109 87.5t42 196.5q0 160 -78 160zM697 515q-51 0 -86 -63t-46 -153h15q87 0 128.5 45t41.5 108
q0 26 -13.5 44.5t-39.5 18.5z" />
    <glyph glyph-name="Scaron" unicode="&#x160;" horiz-adv-x="629" 
d="M260 710.5q-30 -27.5 -30 -77.5t25.5 -89.5t63 -67l82 -59.5l82 -60.5t63 -70.5t25.5 -89q0 -93 -76 -157.5t-199.5 -64.5t-195.5 53t-72 120t40 104.5t103 37.5q18 0 34 -4q-31 -46 -31 -99.5t33 -92t87.5 -38.5t91.5 28.5t37 73t-25 78.5t-62 58.5l-81 56t-81 63.5
t-62 81.5t-25 108.5q0 95 69 151.5t186 56.5t177.5 -52.5t60.5 -112t-38 -100t-103 -40.5q-22 0 -43 4q49 52 49 109.5t-32 87.5t-77.5 30t-75.5 -27.5zM222 1073q37 11 76.5 11t56.5 -21.5t34 -88.5q52 80 134 127q50 -34 51 -89q-82 -51 -123 -92l-23 -23q-6 -6 -22 -25.5
t-20 -23.5q-36 0 -55 20t-26 48t-28 74t-55 83z" />
    <glyph glyph-name="scaron" unicode="&#x161;" horiz-adv-x="502" 
d="M234 499.5q-22 -18.5 -22 -52.5t23.5 -64t57.5 -52.5l68.5 -46t60.5 -58t29 -76.5q0 -72 -62 -121t-154 -49t-144.5 37t-52.5 85t29.5 77.5t73.5 29.5q23 0 43 -8q-32 -34 -32 -72t21 -61t57 -23t60.5 18.5t24.5 48t-17 52.5t-42.5 40.5l-55.5 39.5t-55.5 44.5t-42.5 57
t-17 75.5q0 71 58.5 116.5t146 45.5t128 -34t40.5 -79.5t-28.5 -77.5t-73.5 -32q-22 0 -50 9q22 19 34 43.5t12 48.5t-20 40.5t-48 16.5t-50 -18.5zM137 844q37 11 76.5 11t56.5 -21.5t34 -88.5q52 80 134 127q50 -34 51 -89q-82 -51 -123 -92l-23 -23q-6 -6 -22 -25.5
t-20 -23.5q-36 0 -55 20t-26 48t-28 74t-55 83z" />
    <glyph glyph-name="Ydieresis" unicode="&#x178;" horiz-adv-x="565" 
d="M281 404l7 -39q92 143 149.5 270t67.5 198q75 -42 75 -111q0 -74 -253 -439q-16 -135 -16 -208t14 -106q-85 22 -116 58.5t-31 92t15 158.5q-107 382 -185 499q41 26 86 26q24 0 40.5 -4.5t32.5 -20.5t27.5 -41t25.5 -73q24 -76 61 -260zM299 900q-28 -4 -49 -4
q-103 0 -103 72q0 26 15 71q28 4 49 4q103 0 103 -72q0 -26 -15 -71zM509 900q-28 -4 -49 -4q-103 0 -103 72q0 26 15 71q28 4 49 4q103 0 103 -72q0 -26 -15 -71z" />
    <glyph glyph-name="Zcaron" unicode="&#x17d;" horiz-adv-x="621" 
d="M105 719q2 46 8 65q123 -17 250 -17t180 6q17 40 22 65q66 -66 66 -132q0 -65 -101 -190l-99 -120q-144 -167 -223 -290h15q243 0 359 38q-9 -74 -45 -115t-90 -41q-28 0 -116 11t-181 11t-171 -20q20 77 95 104q288 340 425 589q-261 -56 -346 -56q-48 0 -48 92z
M252 1073q37 11 76.5 11t56.5 -21.5t34 -88.5q52 80 134 127q50 -34 51 -89q-82 -51 -123 -92l-23 -23q-6 -6 -22 -25.5t-20 -23.5q-36 0 -55 20t-26 48t-28 74t-55 83z" />
    <glyph glyph-name="zcaron" unicode="&#x17e;" horiz-adv-x="495" 
d="M346 459l-200 -19q-40 0 -55.5 16.5t-15.5 50.5t8 64q99 -19 186 -19t138 4q20 38 28 68q60 -55 60 -95.5t-46.5 -98t-134 -151.5t-141.5 -165q86 -4 152.5 -4t134.5 12q5 -32 5 -64.5t-18 -51t-63 -18.5q-19 0 -111.5 10.5t-160 10.5t-132.5 -22q17 97 74 118
q182 195 292 354zM132 844q37 11 76.5 11t56.5 -21.5t34 -88.5q52 80 134 127q50 -34 51 -89q-82 -51 -123 -92l-23 -23q-6 -6 -22 -25.5t-20 -23.5q-36 0 -55 20t-26 48t-28 74t-55 83z" />
    <glyph glyph-name="florin" unicode="&#x192;" 
d="M82 357l36 -1q49 0 111 10q22 156 67 246q54 107 163 107q73 0 108.5 -33t35.5 -80t-31 -80t-84 -33q-21 0 -41 7q21 14 35.5 38.5t14.5 48t-12 39t-34 15.5q-48 0 -70 -65t-33 -189q49 7 85.5 7t59 -19t33.5 -70q-16 9 -59.5 9t-125.5 -12q-18 -240 -43 -340
q-56 -220 -208 -220q-72 0 -109.5 33.5t-37.5 81t28.5 79.5t78.5 32q21 0 42 -7q-20 -13 -33 -37t-13 -48t13 -40t35 -16t38 12.5t27.5 40t19 55.5t13.5 76.5t9.5 83.5t8.5 96t9 96q-46 -7 -64 -7q-66 0 -73 84z" />
    <glyph glyph-name="circumflex" unicode="&#x2c6;" horiz-adv-x="450" 
d="M442 648q-37 -11 -76.5 -11t-56.5 21.5t-34 88.5q-52 -80 -134 -127q-50 34 -51 89q82 51 123 92l23 23q6 6 22 25.5t20 23.5q36 0 55 -20t26 -48t28 -74t55 -83z" />
    <glyph glyph-name="caron" unicode="&#x2c7;" horiz-adv-x="450" 
d="M100 844q37 11 76.5 11t56.5 -21.5t34 -88.5q52 80 134 127q50 -34 51 -89q-82 -51 -123 -92l-23 -23q-6 -6 -22 -25.5t-20 -23.5q-36 0 -55 20t-26 48t-28 74t-55 83z" />
    <glyph glyph-name="breve" unicode="&#x2d8;" horiz-adv-x="355" 
d="M20 798q19 14 38.5 14t31.5 -13q0 -29 19.5 -44.5t52.5 -15.5t65.5 26t35.5 62q28 0 50 -21t22 -45q-17 -54 -62.5 -85.5t-105.5 -31.5t-103.5 39t-43.5 115z" />
    <glyph glyph-name="dotaccent" unicode="&#x2d9;" horiz-adv-x="263" 
d="M195 651q-35 -10 -71 -10q-74 0 -74 62q0 20 18 85q35 10 71 10q74 0 74 -62q0 -20 -18 -85z" />
    <glyph glyph-name="ring" unicode="&#x2da;" horiz-adv-x="339" 
d="M252 703q10 40 10 45q0 33 -39 33q-19 0 -36 -5q-10 -40 -10 -45q0 -33 39 -33q19 0 36 5zM317 634q-60 -17 -110 -17q-113 0 -113 97q0 47 28 131q60 17 110 17q113 0 113 -97q0 -47 -28 -131z" />
    <glyph glyph-name="ogonek" unicode="&#x2db;" horiz-adv-x="560" 
d="M410 -201q31 -7 31 -40q-86 -80 -180 -80q-62 0 -104 36t-42 95t41 120.5t126 102.5h68q-50 -40 -83.5 -94t-33.5 -107q0 -28 18 -51t57.5 -23t101.5 41z" />
    <glyph glyph-name="tilde" unicode="&#x2dc;" horiz-adv-x="450" 
d="M423.5 695q-28.5 -30 -61.5 -30t-80.5 14t-66.5 14q-48 0 -75 -43q-23 4 -27 24q8 69 36.5 99t61.5 30t80.5 -14t66.5 -14q48 0 75 43q23 -4 27 -24q-8 -69 -36.5 -99z" />
    <glyph glyph-name="hungarumlaut" unicode="&#x2dd;" horiz-adv-x="450" 
d="M70 624q-11 3 -20 16t-10 29q43 32 81.5 84.5t59.5 114.5q30 -4 50 -17t26.5 -23.5t13.5 -28.5q-27 -55 -84.5 -104t-116.5 -71zM260 624q-11 3 -20 16t-10 29q43 32 81.5 84.5t59.5 114.5q30 -4 50 -17t26.5 -23.5t13.5 -28.5q-27 -55 -84.5 -104t-116.5 -71z" />
    <glyph glyph-name="pi" unicode="&#x3c0;" horiz-adv-x="675" 
d="M388.5 642q97.5 7 166.5 7t94.5 -27.5t25.5 -81.5q0 -4 -0.5 -11.5t-0.5 -11.5q-34 4 -94 8q3 -14 3 -28.5t-24.5 -157t-25 -235t11.5 -119.5q-78 20 -105 60.5t-27 118.5q0 42 16 152t16 152.5t-1 58.5q-31 -1 -92.5 -5.5t-92.5 -5.5q16 -36 16 -88.5t-16 -162.5
t-16 -171t6 -94q-22 -2 -41 -2q-58 0 -80.5 19.5t-22.5 66.5q0 15 24.5 157.5t25.5 251.5v22q-63 4 -84 30.5t-21 77.5q0 4 0.5 11.5t0.5 11.5q95 -11 167.5 -11t170 7z" />
    <glyph glyph-name="endash" unicode="&#x2013;" horiz-adv-x="503" 
d="M270.5 378q72.5 7 123.5 7t70 -27.5t19 -81.5q0 -4 -0.5 -11.5t-0.5 -11.5q-70 11 -123.5 11t-126 -7t-123.5 -7t-70 27.5t-19 81.5q0 4 0.5 11.5t0.5 11.5q70 -11 123.5 -11t126 7z" />
    <glyph glyph-name="emdash" unicode="&#x2014;" horiz-adv-x="665" 
d="M358.5 378q97.5 7 166.5 7t94.5 -27.5t25.5 -81.5q0 -4 -0.5 -11.5t-0.5 -11.5q-95 11 -167.5 11t-170 -7t-166.5 -7t-94.5 27.5t-25.5 81.5q0 4 0.5 11.5t0.5 11.5q95 -11 167.5 -11t170 7z" />
    <glyph glyph-name="quoteleft" unicode="&#x2018;" horiz-adv-x="153" 
d="M149 571q-39 -11 -75 -11q-74 0 -74 62q0 65 47 124.5t137 106.5l29 -45q-79 -70 -79 -162q0 -33 15 -75z" />
    <glyph glyph-name="quoteright" unicode="&#x2019;" horiz-adv-x="248" 
d="M99 842q39 11 75 11q74 0 74 -62q0 -65 -47 -124.5t-137 -106.5l-29 45q79 70 79 162q0 33 -15 75z" />
    <glyph glyph-name="quotesinglbase" unicode="&#x201a;" horiz-adv-x="209" 
d="M45 135q39 11 75 11q74 0 74 -62q0 -65 -47 -124.5t-137 -106.5l-29 45q79 70 79 162q0 33 -15 75z" />
    <glyph glyph-name="quotedblleft" unicode="&#x201c;" horiz-adv-x="355" 
d="M149 571q-39 -11 -75 -11q-74 0 -74 62q0 65 47 124.5t137 106.5l29 -45q-79 -70 -79 -162q0 -33 15 -75zM351 595q-39 -11 -75 -11q-74 0 -74 62q0 65 47 124.5t137 106.5l29 -45q-79 -70 -79 -162q0 -33 15 -75z" />
    <glyph glyph-name="quotedblright" unicode="&#x201d;" horiz-adv-x="450" 
d="M301 842q39 11 75 11q74 0 74 -62q0 -65 -47 -124.5t-137 -106.5l-29 45q79 70 79 162q0 33 -15 75zM99 818q39 11 75 11q74 0 74 -62q0 -65 -47 -124.5t-137 -106.5l-29 45q79 70 79 162q0 33 -15 75z" />
    <glyph glyph-name="quotedblbase" unicode="&#x201e;" horiz-adv-x="411" 
d="M247 135q39 11 75 11q74 0 74 -62q0 -65 -47 -124.5t-137 -106.5l-29 45q79 70 79 162q0 33 -15 75zM45 135q39 11 75 11q74 0 74 -62q0 -65 -47 -124.5t-137 -106.5l-29 45q79 70 79 162q0 33 -15 75z" />
    <glyph glyph-name="dagger" unicode="&#x2020;" horiz-adv-x="390" 
d="M69.5 -115.5q-3.5 16.5 -3.5 49.5t14.5 125l36.5 229t34 238q-107 -2 -182 -35q-4 44 -4 51q0 55 34.5 74t99.5 19h63q8 85 8 132.5t-4 99.5q100 -4 126 -37q13 -17 16.5 -33.5t3.5 -47t-12 -114.5h191q0 -58 -30.5 -83.5t-68.5 -25.5h-107q-2 -20 -23 -174
q-54 -385 -54 -448.5t4 -89.5q-100 4 -126 36q-13 18 -16.5 34.5z" />
    <glyph glyph-name="daggerdbl" unicode="&#x2021;" horiz-adv-x="390" 
d="M4 133l88 -1q50 317 59 394q-105 -2 -180 -35q-6 33 -6 51q0 56 44.5 74.5t129.5 18.5h23q8 85 8 132.5t-4 99.5q100 -4 126 -37q13 -17 16.5 -33.5t3.5 -47.5t-12 -117q28 -1 92 -1t99 17q0 -122 -99 -122h-107q-3 -28 -23 -170.5t-30 -223.5q118 2 193 36q6 -33 6 -51
q0 -56 -44.5 -74.5t-129.5 -18.5h-38q-11 -90 -11 -137t4 -73q-100 4 -126 36q-13 18 -16.5 34.5t-3.5 49t9 93.5q-21 1 -78 1t-92 -17q0 122 99 122z" />
    <glyph glyph-name="bullet" unicode="&#x2022;" horiz-adv-x="316" 
d="M244 236q-43 -12 -85 -12q-89 0 -89 74q0 25 22 102q43 12 85 12q89 0 89 -74q0 -25 -22 -102z" />
    <glyph glyph-name="ellipsis" unicode="&#x2026;" horiz-adv-x="624" 
d="M175 -1q-35 -10 -71 -10q-74 0 -74 62q0 20 18 85q35 10 71 10q74 0 74 -62q0 -20 -18 -85zM383 -1q-35 -10 -71 -10q-74 0 -74 62q0 20 18 85q35 10 71 10q74 0 74 -62q0 -20 -18 -85zM591 -1q-35 -10 -71 -10q-74 0 -74 62q0 20 18 85q35 10 71 10q74 0 74 -62
q0 -20 -18 -85z" />
    <glyph glyph-name="perthousand" unicode="&#x2030;" horiz-adv-x="1267" 
d="M234 633q-36 0 -62.5 -54.5t-26.5 -113t14 -94.5t40 -36q36 0 57 51.5t21 120.5q0 126 -43 126zM190 709q25 0 31 -19q27 9 47 9q57 0 87 -45.5t30 -115t-20 -129t-66.5 -102.5t-109.5 -43t-106.5 51t-43.5 145t41.5 162t109.5 87zM730 346q-36 0 -62.5 -54.5t-26.5 -113
t14 -94.5t40 -36q36 0 57 51.5t21 120.5q0 126 -43 126zM686 422q25 0 31 -19q27 9 47 9q57 0 87 -45.5t30 -115t-20 -129t-66.5 -102.5t-109.5 -43t-106.5 51t-43.5 145t41.5 162t109.5 87zM543 768q8 -3 24.5 -14.5t26.5 -21.5q28 -28 28 -67t-50 -174l-107.5 -303
t-71.5 -270q-11 0 -35 8t-39 17t-27.5 28t-12.5 43q0 45 58 187.5l124.5 310.5t81.5 256zM1116 346q-36 0 -62.5 -54.5t-26.5 -113t14 -94.5t40 -36q36 0 57 51.5t21 120.5q0 126 -43 126zM1072 422q25 0 31 -19q27 9 47 9q57 0 87 -45.5t30 -115t-20 -129t-66.5 -102.5
t-109.5 -43t-106.5 51t-43.5 145t41.5 162t109.5 87z" />
    <glyph glyph-name="guilsinglleft" unicode="&#x2039;" horiz-adv-x="397" 
d="M60 307l3 20q35 16 79 101q17 35 36 68q42 78 85.5 78t103.5 -55q-30 -10 -59.5 -43t-66 -87t-50.5 -72q11 -19 36 -72.5t47.5 -86.5t49.5 -43q-72 -55 -115 -55q-28 0 -49 34t-31.5 76.5t-28.5 84t-40 52.5z" />
    <glyph glyph-name="guilsinglright" unicode="&#x203a;" horiz-adv-x="397" 
d="M337 327l-3 -20q-35 -16 -78 -101l-36 -68q-43 -78 -86.5 -78t-103.5 55q30 10 59.5 43t66 87t50.5 72q-11 19 -36 72.5t-47.5 86.5t-49.5 43q72 55 115 55q28 0 49 -34t31.5 -76.5t28.5 -84t40 -52.5z" />
    <glyph glyph-name="fraction" unicode="&#x2044;" horiz-adv-x="343" 
d="M264 768q8 -4 19 -11.5t29.5 -34t18.5 -61.5t-47 -170l-101.5 -303t-68.5 -270q-10 0 -31.5 8t-35 17t-24.5 28t-11 43q0 45 55 187.5l118.5 310.5t78.5 256z" />
    <glyph glyph-name="Euro" unicode="&#x20ac;" 
d="M-38 407l36 -1q35 0 82 5q30 137 122.5 222.5t233.5 85.5q73 0 108.5 -33t35.5 -80t-31 -80t-84 -33q-21 0 -41 7q21 14 35.5 38.5t14.5 48t-12.5 39t-36.5 15.5q-70 0 -123 -58.5t-79 -149.5q73 11 112.5 11t62 -19t33.5 -70q-17 9 -68 9t-157 -17q-3 -27 -3 -53v-12
q100 17 144 17t66.5 -19t33.5 -70q-17 9 -70 9t-165 -19q16 -71 55 -107t87 -36q96 0 181 116q34 -9 34 -33q-89 -167 -256 -167q-83 0 -146.5 52.5t-87.5 154.5q-22 -2 -28 -2q-66 0 -73 84l36 -1q16 0 54 2q-1 10 -1 30.5t1 31.5q-26 -2 -33 -2q-66 0 -73 84z" />
    <glyph glyph-name="trademark" unicode="&#x2122;" horiz-adv-x="912" 
d="M753 723l-108 -174q-21 -10 -50 -10t-41 14q-27 77 -61 155q-21 -143 -21 -193t2 -82q-54 0 -72 11.5t-18 40t19.5 172t19.5 192.5q-20 34 -38 50q31 21 70.5 21t64 -42.5t102.5 -246.5q59 85 100 166.5t46 122.5q64 -5 81 -22t17 -50.5t-19.5 -162.5t-19.5 -184t14 -88
q-65 16 -89 40t-24 63t11.5 108t13.5 99zM6 866q0 23 8 44q78 -13 161.5 -13t195.5 23q-13 -90 -88 -97l-52 -5q-39 -211 -39 -329q0 -45 15 -76q-65 17 -89.5 41t-24.5 59.5t3.5 77.5t7 67l12 82t10.5 72q-56 -2 -82 -2q-38 0 -38 56z" />
    <glyph glyph-name="Omega" unicode="&#x2126;" horiz-adv-x="802" 
d="M36 -11l-1 23q0 55 11 82t44 27t78.5 -6t71.5 -6t54 4l2 16q-76 4 -140 56q-33 27 -52.5 77t-19.5 116q0 128 80.5 222t213.5 120q32 0 34 -36q70 22 126 22q102 0 157 -62t55 -159q0 -137 -80 -242.5t-214 -114.5l-1 -15q25 -4 50.5 -4t70.5 6t76.5 6t42.5 -27t11 -82
q0 -4 -0.5 -11.5t-0.5 -11.5q-41 11 -85 11h-138q-43 0 -56.5 6.5t-17 19.5t-3.5 41.5t9 111.5q70 7 125 82.5t55 176.5t-40 152t-107 51q-86 0 -149 -74t-63 -190q0 -79 29.5 -128t82.5 -65q-6 -92 -19 -144q-9 -32 -46 -38q-11 -2 -40 -2h-121q-44 0 -85 -11z" />
    <glyph glyph-name="partialdiff" unicode="&#x2202;" horiz-adv-x="627" 
d="M457 452l1 30q0 110 -36.5 184.5t-96.5 74.5q-22 0 -34 -15.5t-12 -39t14.5 -48t35.5 -38.5q-20 -7 -41 -7q-53 0 -85 32.5t-32 78.5t40 80.5t116 34.5q95 0 173 -82q39 -40 63 -109.5t24 -159t-16.5 -171t-51.5 -154t-100 -115.5t-152.5 -43t-152 60.5t-64.5 179.5
t78.5 192.5t186.5 73.5q76 0 142 -39zM288 57q48 0 84 49q68 89 83 288q-47 30 -95 30q-70 0 -118 -60.5t-48 -156.5q0 -67 23 -108.5t71 -41.5z" />
    <glyph glyph-name="Delta" unicode="&#x2206;" horiz-adv-x="658" 
d="M302 722q38 11 85.5 11t80.5 -49t50 -115l116 -455q7 -26 7 -52q0 -44 -28 -62q-111 0 -262 -7t-198 -7q-99 0 -122 56q43 99 156.5 331t145.5 315q-11 14 -31 34zM382 571l-64 -137q-107 -232 -151 -349q47 -2 111 -2t130 5.5t94 6.5l-48.5 202.5t-71.5 273.5z" />
    <glyph glyph-name="product" unicode="&#x220f;" horiz-adv-x="765" 
d="M641 611q18 -26 18 -79t-33.5 -306.5t-33.5 -353.5t12 -130q-76 20 -106 61t-30 114q0 44 29 271.5t29 375.5q0 32 -1 47q-37 -1 -126.5 -6t-131.5 -6q25 -38 25 -94t-29 -283.5t-29 -375.5q0 -32 4 -90q-91 4 -116 40q-13 19 -17 38.5t-4 58t33.5 292t33.5 366.5
q0 32 -1 47q-70 2 -93.5 29t-23.5 80q0 4 0.5 11.5t0.5 11.5q95 -11 167.5 -11t215 7t211.5 7t94.5 -27.5t25.5 -81.5q0 -4 -0.5 -11.5t-0.5 -11.5q-58 7 -123 10z" />
    <glyph glyph-name="summation" unicode="&#x2211;" horiz-adv-x="765" 
d="M504 242l-321 -369q24 -1 63 -1t138 7t164 7q120 0 120 -82q0 -27 -7 -50q-94 11 -166.5 11t-171.5 -7t-154 -7t-84 20t-43 78q4 48 79.5 148t238.5 245q-263 268 -263 393q22 58 54 78t87 20t153 -7t170.5 -7t168.5 11q0 -66 -26 -99t-99 -33t-171 7t-137 7t-63 -1z" />
    <glyph glyph-name="minus" unicode="&#x2212;" 
d="M332.5 417q81.5 7 140 7t80.5 -27.5t22 -81.5q0 -4 -0.5 -11.5t-0.5 -11.5q-81 11 -143 11t-143.5 -7t-140 -7t-80.5 27.5t-22 81.5q0 4 0.5 11.5t0.5 11.5q81 -11 143 -11t143.5 7z" />
    <glyph glyph-name="radical" unicode="&#x221a;" horiz-adv-x="591" 
d="M259 -68q59 164 146 484t87 391q123 0 180.5 7t100.5 19q4 -32 4 -54.5t-14 -41t-41 -27.5q-46 -15 -123 -15q-23 -111 -128 -412t-178 -489q-27 -14 -91 -14q-30 0 -34 15q-16 64 -37 191.5t-42.5 223t-51.5 144.5q55 26 89 26t52 -20t29 -66t17 -92q23 -193 35 -270z
" />
    <glyph glyph-name="infinity" unicode="&#x221e;" 
d="M51.5 489q40.5 46 88.5 46t81 -31t74 -91q26 38 45.5 60.5t54 42t74.5 19.5q65 0 102.5 -55.5t37.5 -152.5t-40.5 -143.5t-89.5 -46.5t-82.5 30.5t-71.5 88.5q-41 -57 -79.5 -88t-99 -31t-98 55.5t-37.5 153t40.5 143.5zM141 284q59 0 112 70q-49 52 -98 52
q-71 0 -71 -62q0 -23 16 -41.5t41 -18.5zM479 386q-60 0 -112 -70q49 -52 98 -52q71 0 71 62q0 23 -16 41.5t-41 18.5z" />
    <glyph glyph-name="integral" unicode="&#x222b;" horiz-adv-x="454" 
d="M180 -203q-50 -55 -127 -55t-117.5 34.5t-40.5 80.5t32 78.5t85 32.5q21 0 41 -7q-21 -14 -35.5 -38.5t-14.5 -48t12 -39t34 -15.5q74 0 93 198q9 88 14.5 194.5t17.5 213.5t34 195t71.5 143t124.5 55t115 -34.5t40 -80.5t-32 -78.5t-85 -32.5q-21 0 -41 7
q21 14 35.5 38.5t14.5 48t-12 39t-34 15.5q-73 0 -91 -198q-8 -88 -12 -194.5t-15.5 -213.5t-34 -195t-72.5 -143z" />
    <glyph glyph-name="approxequal" unicode="&#x2248;" 
d="M576 551q0 -176 -155 -176q-44 0 -124.5 20.5t-110.5 20.5q-102 0 -142 -53q0 176 155 176q44 0 124.5 -20.5t110.5 -20.5q102 0 142 53zM576 313q0 -176 -155 -176q-44 0 -124.5 20.5t-110.5 20.5q-102 0 -142 -53q0 176 155 176q44 0 124.5 -20.5t110.5 -20.5
q102 0 142 53z" />
    <glyph glyph-name="notequal" unicode="&#x2260;" 
d="M332.5 536q81.5 7 140 7t80.5 -27.5t22 -81.5q0 -4 -0.5 -11.5t-0.5 -11.5q-81 11 -143 11t-143.5 -7t-140 -7t-80.5 27.5t-22 81.5q0 4 0.5 11.5t0.5 11.5q81 -11 143 -11t143.5 7zM332.5 298q81.5 7 140 7t80.5 -27.5t22 -81.5q0 -4 -0.5 -11.5t-0.5 -11.5
q-81 11 -143 11t-143.5 -7t-140 -7t-80.5 27.5t-22 81.5q0 4 0.5 11.5t0.5 11.5q81 -11 143 -11t143.5 7zM388 768q8 -4 19 -11.5t29.5 -34t18.5 -61.5t-47 -170l-101.5 -303t-68.5 -270q-10 0 -31.5 8t-35 17t-24.5 28t-11 43q0 45 55 187.5l118.5 310.5t78.5 256z" />
    <glyph glyph-name="lessequal" unicode="&#x2264;" 
d="M90 313q-20 22 -20 52t20 58q70 34 153 91.5t139 91.5t96 34q50 0 72 -99q-63 -22 -177.5 -90.5t-142.5 -82.5q29 -14 142 -81.5t178 -91.5q-22 -99 -72 -99q-40 0 -96 34t-139 91.5t-153 91.5zM332.5 42q81.5 7 140 7t80.5 -27.5t22 -81.5q0 -4 -0.5 -11.5t-0.5 -11.5
q-81 11 -143 11t-143.5 -7t-140 -7t-80.5 27.5t-22 81.5q0 4 0.5 11.5t0.5 11.5q81 -11 143 -11t143.5 7z" />
    <glyph glyph-name="greaterequal" unicode="&#x2265;" 
d="M530 313q-70 -34 -153 -91.5t-139 -91.5t-96 -34q-50 0 -72 99q65 24 178 91.5t142 81.5q-28 14 -142.5 82.5t-177.5 90.5q22 99 72 99q40 0 96 -34t139 -91.5t153 -91.5q20 -28 20 -58t-20 -52zM332.5 42q81.5 7 140 7t80.5 -27.5t22 -81.5q0 -4 -0.5 -11.5t-0.5 -11.5
q-81 11 -143 11t-143.5 -7t-140 -7t-80.5 27.5t-22 81.5q0 4 0.5 11.5t0.5 11.5q81 -11 143 -11t143.5 7z" />
    <glyph glyph-name="lozenge" unicode="&#x25ca;" horiz-adv-x="517" 
d="M381 329l-103 260l-113 -258l103 -260zM487 329l-166 -375h-51q-42 0 -59.5 19t-40.5 75l-111 283l166 375h51q42 0 59.5 -19t40.5 -75z" />
    <glyph glyph-name="fi" unicode="&#xfb01;" horiz-adv-x="673" 
d="M409 584q2 -20 2 -30q0 -48 -17 -66.5t-59.5 -18.5t-65.5 1q-39 -284 -39 -407q0 -59 2.5 -85.5t13.5 -90.5q-72 23 -106 74.5t-34 121.5q0 105 30 310q7 52 9 69q-53 -9 -108 -34q-2 22 -2 33q0 54 33 73t95 20q69 344 302 344q78 0 122 -41.5t44 -91t-31 -81t-87 -31.5
q-23 0 -47 10q37 25 37 79q0 35 -19.5 60t-55.5 25q-46 0 -87 -65t-62 -211q89 0 130 33zM590.5 339.5q-24.5 -142.5 -25 -235t11.5 -119.5q-78 20 -105 60.5t-27 118.5q0 42 16 152t16 171t-6 94q22 2 41 2q58 0 80.5 -19.5t22.5 -66.5q0 -15 -24.5 -157.5z" />
    <glyph glyph-name="fl" unicode="&#xfb02;" horiz-adv-x="668" 
d="M409 584q2 -20 2 -30q0 -48 -17 -66.5t-59.5 -18.5t-65.5 1q-39 -284 -39 -407q0 -59 2.5 -85.5t13.5 -90.5q-72 23 -106 74.5t-34 121.5q0 105 30 310q7 52 9 69q-53 -9 -108 -34q-2 22 -2 33q0 54 33 73t95 20q41 200 125 275q77 68 163 68q172 0 172 -173
q0 -43 -29 -276.5t-29 -333.5t12 -130q-75 20 -102.5 60.5t-27.5 107t28 289.5t28 298q0 37 -18.5 62t-56.5 25q-56 0 -90 -60t-58 -215q88 0 129 33z" />
  </font>
</defs>
</svg>
